<?xml version="1.0" standalone="no"?>
<!DOCTYPE svg PUBLIC "-//W3C//DTD SVG 20010904//EN"
 "http://www.w3.org/TR/2001/REC-SVG-20010904/DTD/svg10.dtd">
<svg version="1.0" xmlns="http://www.w3.org/2000/svg"
 width="871.000000pt" height="871.000000pt" viewBox="0 0 871.000000 871.000000"
 preserveAspectRatio="xMidYMid meet">
<metadata>
Created by potrace 1.14, written by Peter Selinger 2001-2017
</metadata>
<g transform="translate(0.000000,871.000000) scale(0.100000,-0.100000)"
fill="#000000" stroke="none">
<path d="M3938 8675 c-1 -1 -41 -6 -88 -9 -47 -3 -96 -8 -110 -11 -14 -3 -45
-8 -70 -11 -25 -3 -52 -7 -61 -10 -9 -2 -32 -7 -50 -9 -49 -6 -261 -53 -339
-76 -51 -14 -63 -17 -87 -23 -10 -3 -18 -5 -18 -5 0 -1 -43 -16 -95 -34 -115
-40 -119 -49 -56 -133 67 -89 266 -287 366 -364 25 -19 47 -38 50 -41 30 -33
329 -228 470 -306 48 -27 167 -93 215 -121 50 -28 445 -224 669 -331 l169 -81
41 38 c40 37 72 65 131 117 85 74 231 134 370 152 205 27 412 -20 575 -130 25
-17 47 -33 50 -37 3 -3 21 -17 40 -30 52 -37 78 -59 134 -117 54 -56 84 -65
119 -38 27 20 15 44 -51 106 -135 126 -213 180 -382 263 -80 40 -122 65 -102
62 50 -8 160 -55 231 -98 34 -21 66 -38 69 -38 16 0 168 -124 237 -193 l80
-81 59 1 c72 2 85 12 65 50 -21 42 -178 194 -248 242 -63 43 -226 129 -259
136 -9 2 -41 13 -69 24 -29 10 -53 18 -53 16 0 -5 -142 33 -148 41 -10 10 157
-4 203 -18 22 -6 43 -13 48 -14 4 -1 9 -3 12 -4 3 -1 8 -3 13 -5 68 -19 242
-116 322 -180 14 -11 70 -65 125 -121 101 -101 201 -238 226 -306 7 -21 17
-38 21 -38 4 0 7 -3 6 -7 0 -5 2 -16 5 -25 4 -10 10 -26 14 -35 8 -22 5 -12
31 -121 13 -51 26 -116 30 -145 9 -69 9 -299 -1 -362 -7 -48 -9 -61 -23 -130
-10 -53 -52 -168 -82 -229 l-30 -58 37 -77 c56 -114 130 -314 144 -391 3 -14
8 -36 11 -50 20 -86 30 -206 30 -355 0 -141 -8 -218 -33 -329 -11 -45 -22
-103 -27 -131 -9 -58 -8 -54 -23 -165 -6 -47 -14 -98 -17 -115 -2 -16 -6 -39
-8 -50 -2 -11 -9 -40 -16 -65 -7 -25 -13 -52 -15 -60 -15 -74 -80 -214 -143
-310 -49 -74 -63 -92 -126 -160 -60 -66 -93 -115 -116 -175 -13 -33 -27 -64
-31 -70 -4 -5 -28 -50 -54 -100 -113 -215 -182 -313 -300 -430 -92 -90 -125
-119 -178 -155 -20 -14 -37 -28 -37 -32 0 -5 -5 -8 -11 -8 -6 0 -24 -9 -39
-20 -16 -11 -46 -27 -67 -36 l-38 -15 42 38 c23 21 51 45 62 54 111 85 223
228 284 362 35 75 69 176 64 190 -2 8 -49 12 -138 13 -74 1 -154 5 -179 9 -25
4 -67 8 -95 9 l-50 1 -47 -140 c-26 -77 -47 -141 -48 -142 0 -2 -2 -8 -4 -15
-3 -7 -38 -116 -79 -243 -66 -202 -123 -398 -132 -460 -2 -11 -10 -56 -19
-100 -19 -90 -31 -215 -22 -215 3 0 15 21 27 47 117 257 209 392 328 481 20
15 38 29 41 32 20 20 164 84 215 96 99 23 371 21 520 -3 22 -3 57 -7 77 -7 21
-1 38 -3 38 -6 0 -3 12 -6 28 -6 15 -1 59 -5 97 -8 69 -7 231 -8 290 -2 117
12 276 110 322 200 20 38 23 171 6 232 -16 60 -17 63 -30 94 -36 85 -54 136
-59 167 -3 20 -7 43 -9 53 -2 10 1 37 6 61 8 37 23 57 94 124 67 63 85 87 85
108 0 37 -21 75 -64 116 -45 44 -45 63 0 85 137 65 160 139 76 249 -63 82 -75
113 -76 193 -1 110 22 138 171 210 162 78 206 112 238 180 48 101 35 129 -175
378 -47 56 -114 137 -150 181 -35 44 -67 82 -70 85 -32 27 -255 347 -275 395
-5 11 -9 171 -10 355 -2 294 -7 429 -20 520 -2 14 -6 45 -9 70 -3 25 -8 59
-12 75 -12 64 -33 171 -39 193 -3 12 -7 32 -10 43 -2 12 -12 47 -21 78 -9 31
-17 61 -19 66 -1 6 -5 19 -9 30 -5 11 -12 34 -18 50 -35 104 -130 291 -205
405 -284 428 -670 744 -1153 943 -69 28 -238 88 -260 92 -3 1 -37 11 -76 23
-61 19 -207 57 -254 67 -181 37 -273 53 -360 61 -63 6 -626 14 -632 9z m66
-254 c3 -4 0 -15 -7 -24 -15 -21 -43 -6 -34 17 7 17 32 22 41 7z m986 -30 c0
-10 -7 -21 -15 -25 -11 -4 -15 1 -15 19 0 16 6 25 15 25 8 0 15 -9 15 -19z
m500 -91 c0 -5 -4 -10 -10 -10 -5 0 -10 5 -10 10 0 6 5 10 10 10 6 0 10 -4 10
-10z m-2096 -35 c-8 -19 -40 -20 -47 -1 -3 7 -1 18 5 24 15 15 49 -4 42 -23z
m1276 -25 c0 -24 -29 -38 -40 -20 -12 19 -1 40 21 40 12 0 19 -7 19 -20z m526
6 c33 -34 -5 -86 -41 -56 -19 16 -19 35 1 54 19 20 22 20 40 2z m-965 -127
c27 -39 80 -88 94 -89 6 0 18 -7 28 -14 17 -13 16 -15 -17 -31 -59 -28 -114
-97 -151 -189 -16 -42 -27 -41 -33 2 -9 70 -103 176 -167 188 -49 9 -51 19 -5
34 61 20 113 71 155 151 l38 72 17 -46 c10 -25 28 -60 41 -78z m1456 -33 c114
-7 231 -44 375 -117 84 -43 61 -48 -38 -8 -86 34 -204 71 -204 63 0 -3 -5 -2
-12 2 -7 4 -24 9 -38 11 -14 1 -45 6 -70 9 -62 9 -276 9 -325 1 -84 -14 -101
-19 -171 -52 -66 -30 -134 -83 -134 -104 0 -13 -53 -68 -78 -81 -13 -6 -37
-13 -53 -15 -16 -2 -37 -12 -47 -22 -26 -25 -72 -106 -72 -126 0 -10 -5 -17
-12 -17 -6 0 -9 -3 -5 -6 3 -3 -3 -26 -14 -51 -10 -24 -21 -54 -23 -66 -3 -12
-9 -37 -15 -56 -6 -18 -9 -38 -8 -45 1 -6 -5 -11 -13 -11 -8 0 -14 5 -13 12 1
6 5 38 7 71 6 62 23 114 74 220 44 90 55 130 53 185 -2 69 20 104 81 126 21 7
36 4 81 -19 31 -17 58 -25 63 -20 18 17 150 78 204 94 30 9 90 19 135 22 44 4
81 7 82 8 3 2 106 -2 190 -8z m-2124 -72 c-4 -10 -9 -12 -15 -6 -12 12 -1 35
12 27 5 -3 6 -13 3 -21z m2293 -118 c99 -12 157 -30 273 -83 79 -35 228 -130
252 -160 17 -20 17 -21 -89 45 -99 61 -228 115 -342 143 -127 32 -342 34 -435
5 -161 -51 -265 -127 -368 -266 -22 -30 -42 -57 -44 -59 -1 -2 -6 -2 -9 1 -12
13 52 120 103 173 58 60 171 139 226 157 17 6 37 14 42 18 12 9 58 21 105 27
19 3 36 6 37 7 5 4 200 -2 249 -8z m54 -160 c67 -11 95 -18 154 -40 228 -86
432 -239 528 -398 10 -15 16 -28 13 -28 -3 0 -58 52 -122 116 -128 126 -199
180 -302 226 -147 67 -254 92 -401 91 -156 0 -236 -28 -402 -138 -51 -34 -48
-15 5 35 56 54 185 117 272 134 63 12 190 13 255 2z m-1426 -297 c-3 -5 -10
-7 -15 -3 -5 3 -7 10 -3 15 3 5 10 7 15 3 5 -3 7 -10 3 -15z m2556 -2134 c17
-21 -1 -39 -29 -30 -17 5 -19 10 -11 26 13 23 23 24 40 4z m154 -374 c3 -4 3
-11 0 -14 -8 -8 -34 3 -34 14 0 11 27 12 34 0z m143 -60 c20 -26 15 -38 -23
-60 -35 -21 -36 -21 -60 -2 -13 10 -40 22 -60 26 -37 6 -39 17 -4 22 10 1 35
14 55 28 39 26 64 22 92 -14z m-123 -295 c-7 -17 -32 -28 -45 -20 -13 8 -11
42 4 47 19 7 47 -12 41 -27z m-166 -215 c3 -8 -1 -12 -9 -9 -7 2 -15 10 -17
17 -3 8 1 12 9 9 7 -2 15 -10 17 -17z m-326 -955 c12 -17 9 -25 -11 -36 -28
-15 -55 13 -39 39 12 19 36 17 50 -3z m102 -301 c4 -14 31 -50 62 -80 l56 -54
-55 -53 c-29 -29 -59 -64 -67 -77 l-12 -24 -13 30 c-7 16 -34 53 -59 82 l-47
53 38 36 c21 21 47 54 58 75 23 44 31 46 39 12z m-979 -195 c4 -6 1 -18 -6
-26 -12 -14 -14 -14 -26 2 -7 9 -10 21 -7 25 7 12 31 11 39 -1z m695 -85 c0
-30 -32 -59 -48 -43 -16 16 -15 44 3 62 20 20 45 10 45 -19z"/>
<path d="M2774 8382 c-67 -28 -87 -45 -80 -68 5 -17 63 -78 179 -190 12 -11
51 -45 87 -75 36 -30 67 -56 70 -59 13 -14 237 -174 330 -237 123 -81 204
-129 355 -208 61 -32 152 -80 204 -107 115 -61 721 -364 811 -406 107 -50 115
-50 138 1 11 27 10 28 -41 61 -56 36 -168 93 -517 265 -219 108 -314 157 -433
227 -32 19 -60 34 -62 34 -10 0 -248 148 -332 207 -209 145 -299 224 -545 482
-48 50 -96 91 -105 90 -10 0 -36 -8 -59 -17z"/>
<path d="M2555 8283 c-27 -14 -60 -34 -72 -45 -21 -20 -21 -22 -5 -47 9 -14
50 -60 90 -103 l74 -76 49 23 c43 19 55 21 81 11 37 -13 77 -59 79 -89 1 -12
2 -33 3 -47 1 -14 6 -32 11 -41 17 -28 239 -170 433 -277 126 -69 782 -394
822 -407 32 -11 368 -177 557 -276 112 -59 135 -60 141 -3 3 36 46 12 -538
305 -491 246 -649 330 -808 431 -51 32 -97 58 -103 58 -5 0 -9 5 -9 10 0 6 -5
10 -11 10 -6 0 -23 9 -37 20 -87 66 -164 120 -172 120 -4 0 -10 3 -12 8 -1 4
-37 33 -78 64 -41 32 -87 68 -101 80 -15 13 -42 35 -61 50 -44 35 -136 118
-211 191 -33 31 -62 57 -66 57 -3 -1 -28 -12 -56 -27z"/>
<path d="M2321 8136 c-24 -18 -48 -40 -53 -50 -19 -33 55 -111 274 -289 59
-47 127 -99 150 -113 89 -57 367 -190 778 -375 96 -43 207 -94 245 -112 103
-51 112 -33 22 41 -29 23 -65 53 -81 67 -16 14 -32 25 -35 25 -3 0 -17 10 -31
23 -38 34 -321 217 -335 217 -8 0 -197 117 -303 188 l-112 75 -75 1 c-61 1
-78 5 -93 22 -22 23 -37 61 -41 98 -2 20 -74 99 -148 161 -76 65 -100 68 -162
21z"/>
<path d="M2130 7994 c-103 -86 -241 -219 -277 -267 -55 -74 -87 -212 -97 -412
-4 -80 6 -108 49 -148 40 -37 146 -107 163 -107 15 0 11 39 -15 147 -16 64
-11 112 8 83 5 -8 27 -71 49 -140 48 -150 56 -167 93 -203 32 -31 223 -177
231 -177 3 0 25 -14 50 -31 96 -64 505 -239 560 -239 20 0 27 6 32 28 3 15 8
34 10 42 3 12 15 106 16 130 2 29 -10 45 -54 80 -70 53 -65 50 -125 93 l-52
38 -58 -47 c-72 -59 -123 -82 -174 -79 -70 4 -113 71 -70 109 24 22 61 15 123
-23 l47 -30 36 36 c50 50 51 44 -45 123 -30 25 -64 53 -75 63 -41 38 -49 37
-79 -4 -16 -21 -31 -37 -33 -35 -4 4 13 53 56 158 17 42 32 87 33 100 3 21 0
23 -39 21 -24 -1 -63 -11 -88 -22 -44 -20 -45 -21 -39 -58 10 -60 8 -101 -6
-128 -16 -30 -31 -32 -54 -6 -27 30 -35 73 -21 115 19 55 50 83 135 122 41 20
90 43 109 52 32 16 73 69 65 83 -2 4 4 13 12 20 15 12 22 8 56 -31 56 -65 143
-199 157 -242 18 -56 15 -131 -8 -194 l-22 -57 45 -42 c47 -44 145 -108 183
-119 18 -6 30 4 73 56 93 114 182 179 306 225 41 15 74 30 74 34 0 8 -83 64
-92 62 -3 -2 -12 4 -18 12 -7 8 -16 15 -20 15 -17 0 -316 188 -470 297 -115
80 -284 210 -322 246 -10 9 -21 17 -24 17 -4 0 -15 10 -25 22 -11 11 -19 18
-19 15 0 -3 -13 7 -28 21 -34 33 -175 159 -218 196 -18 14 -36 26 -40 26 -5 0
-34 -21 -64 -46z m200 -289 c29 -35 -20 -76 -59 -48 -25 17 -26 26 -5 47 19
20 48 20 64 1z m-230 -105 c0 -19 14 -33 38 -36 21 -4 26 -12 15 -26 -5 -7 -8
-28 -6 -47 2 -19 -2 -38 -8 -41 -5 -4 -39 -8 -75 -9 -56 -2 -64 0 -64 16 0 39
22 92 50 124 16 19 30 38 30 42 0 17 20 -5 20 -23z m1175 -470 c3 -5 -1 -10
-10 -10 -9 0 -13 5 -10 10 3 6 8 10 10 10 2 0 7 -4 10 -10z m-188 -26 c3 -9 0
-20 -8 -25 -23 -14 -29 -11 -29 16 0 28 27 35 37 9z"/>
<path d="M1710 7601 c-125 -143 -160 -189 -160 -209 0 -27 136 -130 151 -115
5 5 11 45 14 89 3 43 7 90 10 104 4 20 13 81 17 119 3 34 -9 38 -32 12z"/>
<path d="M2990 7474 c0 -8 49 -54 57 -54 3 0 20 -11 37 -23 54 -41 248 -153
336 -194 114 -54 157 -73 163 -73 3 0 18 -5 34 -12 15 -6 30 -12 33 -13 3 -1
16 -6 30 -12 100 -40 322 -114 332 -111 10 4 -23 29 -97 75 -25 15 -284 143
-290 143 -2 0 -30 12 -62 26 -75 33 -230 104 -313 142 -133 60 -166 75 -208
93 -48 21 -52 22 -52 13z"/>
<path d="M2611 7369 c-17 -27 -41 -104 -66 -210 -6 -24 2 -34 64 -88 127 -109
139 -112 165 -35 18 55 21 111 5 151 -16 45 -110 189 -130 202 -17 10 -22 7
-38 -20z"/>
<path d="M5409 7374 c-87 -16 -191 -58 -261 -105 -66 -45 -150 -124 -168 -158
-11 -22 -10 -27 13 -45 15 -12 93 -59 174 -105 82 -47 226 -133 322 -193 96
-59 181 -108 190 -108 9 0 33 11 53 25 20 14 41 25 47 25 5 0 11 3 13 8 3 7
93 71 143 102 117 72 315 207 315 214 0 17 -178 183 -240 224 -152 102 -410
152 -601 116z m141 -208 c0 -20 -12 -27 -26 -15 -7 6 -10 17 -8 24 7 16 34 8
34 -9z m308 -99 c3 -23 -1 -27 -21 -27 -28 0 -43 26 -27 45 18 21 45 11 48
-18z m-308 -188 c0 -12 -7 -19 -19 -19 -22 0 -34 23 -19 38 15 15 38 3 38 -19z"/>
<path d="M1475 7298 c-30 -70 -1 -237 79 -461 51 -141 111 -250 181 -323 5 -6
28 -32 49 -58 21 -26 51 -53 66 -61 30 -15 161 -45 172 -38 8 4 -19 59 -63
128 -14 22 -38 63 -53 90 -16 28 -33 56 -38 63 -6 6 -8 12 -5 12 3 0 -7 26
-22 58 -29 57 -65 161 -76 217 -16 74 -35 183 -40 219 -2 21 -5 40 -7 41 -2 1
-33 27 -70 59 -37 31 -70 56 -73 56 -4 0 -13 7 -21 15 -27 27 -63 19 -79 -17z"/>
<path d="M3870 7194 c0 -10 43 -45 48 -39 6 6 -28 45 -40 45 -4 0 -8 -3 -8 -6z"/>
<path d="M3981 7183 c40 -48 213 -158 399 -253 106 -54 212 -111 225 -120 12
-10 80 -48 118 -68 35 -17 57 -10 57 20 -1 26 -22 58 -39 58 -6 0 -11 5 -11
10 0 6 -7 10 -15 10 -8 0 -15 5 -15 10 0 6 -4 10 -8 10 -5 0 -44 20 -88 45
-43 25 -155 83 -249 129 -325 160 -410 193 -374 149z"/>
<path d="M1363 7098 c-17 -24 -40 -62 -52 -86 l-22 -42 40 -118 c53 -158 108
-307 126 -342 16 -32 61 -51 128 -53 38 -2 42 0 43 23 0 14 -15 68 -34 120
-62 171 -143 405 -143 410 2 13 -42 130 -48 130 -4 0 -21 -19 -38 -42z"/>
<path d="M1787 7103 c-14 -24 23 -216 53 -278 8 -17 30 -69 35 -85 20 -59 94
-200 138 -264 88 -126 115 -146 235 -176 140 -35 222 -48 222 -36 0 10 -33 53
-98 131 -102 120 -193 260 -285 438 -72 139 -89 157 -206 229 -79 50 -87 53
-94 41z"/>
<path d="M3437 7054 c-110 -26 -207 -93 -300 -206 -52 -63 -57 -98 -20 -132
58 -55 323 -216 354 -216 14 0 17 16 21 103 5 118 22 162 91 229 67 65 136 93
232 93 92 0 119 -5 181 -36 80 -38 183 -163 200 -243 25 -111 11 -189 -51
-287 -19 -30 -35 -59 -35 -66 0 -12 66 -30 140 -37 211 -22 276 -24 293 -7 31
31 -90 303 -193 435 -32 42 -133 136 -144 136 -3 0 -34 18 -69 40 -62 39 -287
144 -287 134 0 -2 -13 2 -30 11 -16 9 -30 13 -30 11 0 -3 -12 -1 -27 5 -95 37
-242 52 -326 33z"/>
<path d="M6511 7039 c-11 -5 -21 -11 -21 -15 0 -4 20 -41 44 -83 41 -73 92
-189 102 -235 3 -11 12 -59 20 -106 26 -158 12 -462 -20 -429 -3 3 -6 90 -7
194 -2 187 -10 267 -33 330 -66 181 -90 230 -145 288 -34 36 -53 43 -85 31
-24 -9 -19 -43 17 -119 86 -179 119 -313 117 -470 0 -55 -10 -156 -16 -166 -2
-4 -6 -35 -10 -71 l-6 -65 73 -79 c40 -43 79 -85 85 -91 7 -7 22 -25 33 -39
28 -35 45 -26 75 39 58 127 69 197 68 442 -1 245 -17 347 -73 486 -45 108 -81
148 -145 158 -28 4 -61 4 -73 0z"/>
<path d="M4927 7018 c-9 -7 -21 -25 -26 -39 -12 -34 -2 -44 134 -128 55 -34
139 -87 187 -119 219 -143 298 -192 311 -192 22 0 90 69 83 85 -5 15 -246 176
-366 245 -41 23 -83 50 -92 58 -10 8 -18 11 -18 7 0 -4 -8 -1 -17 7 -21 17
-157 88 -170 88 -5 0 -17 -6 -26 -12z"/>
<path d="M6196 6935 c-32 -19 -60 -35 -62 -35 -8 0 -119 -75 -122 -82 -2 -5
-8 -8 -14 -8 -5 0 -35 -18 -66 -40 -31 -22 -68 -48 -82 -58 -14 -9 -43 -34
-65 -54 l-40 -38 35 -33 c19 -18 64 -55 100 -82 36 -27 67 -53 68 -57 2 -4 8
-8 13 -8 6 0 15 -5 22 -10 7 -6 30 -24 52 -40 22 -16 45 -33 50 -38 81 -63
295 -192 319 -192 3 0 13 15 23 33 30 58 23 401 -11 517 -33 110 -117 260
-146 260 -9 0 -42 -16 -74 -35z m-153 -355 c7 -28 -32 -39 -50 -14 -12 16 -11
20 3 31 20 15 41 7 47 -17z m282 -80 c9 -29 -12 -52 -35 -40 -23 13 -29 30
-19 58 7 19 12 21 28 12 11 -5 23 -19 26 -30z"/>
<path d="M4190 6935 c0 -5 24 -34 100 -118 58 -64 151 -187 177 -235 11 -20
30 -55 43 -77 12 -22 40 -92 60 -155 l38 -115 74 -1 c77 -2 99 6 93 34 -1 9
-6 37 -9 62 -14 97 16 59 -242 307 -295 284 -334 318 -334 298z"/>
<path d="M4330 6900 c0 -14 70 -80 165 -153 34 -26 232 -147 241 -147 24 0 22
49 -3 74 -70 70 -403 257 -403 226z"/>
<path d="M3750 6884 c-107 -27 -196 -107 -217 -194 -4 -19 -4 -111 0 -130 14
-56 22 -77 36 -94 19 -21 84 -56 106 -56 8 0 47 29 86 65 39 36 74 64 76 61 3
-3 -12 -33 -32 -67 -45 -73 -42 -85 31 -111 27 -10 50 -18 52 -17 2 0 55 -7
107 -15 27 -5 84 20 106 45 84 97 85 252 3 371 -78 112 -232 174 -354 142z
m59 -181 c26 -21 37 -74 21 -103 -24 -45 -116 -45 -140 0 -11 21 -10 70 2 70
4 0 8 6 8 13 0 16 36 35 66 36 12 1 32 -7 43 -16z m251 -202 c0 -24 -18 -37
-31 -24 -13 13 -1 43 17 43 8 0 14 -9 14 -19z"/>
<path d="M3736 6674 c-22 -21 -20 -51 3 -64 26 -14 50 -3 57 26 11 44 -29 70
-60 38z"/>
<path d="M4865 6880 c-22 -24 -23 -65 -1 -89 9 -10 49 -40 89 -67 39 -27 76
-53 82 -57 5 -4 46 -33 90 -65 44 -31 89 -65 100 -75 47 -43 138 -107 154
-107 19 0 91 62 91 78 0 5 -17 24 -37 42 -46 39 -416 285 -494 329 -55 30 -56
31 -74 11z"/>
<path d="M1225 6860 c-49 -95 -93 -252 -77 -277 17 -27 224 -84 236 -65 5 8
-13 81 -39 157 -10 28 -19 55 -20 60 -9 42 -64 155 -74 155 -6 0 -17 -13 -26
-30z"/>
<path d="M2130 6835 c0 -16 61 -122 133 -230 60 -92 158 -212 244 -303 80 -83
90 -88 343 -152 91 -24 170 -46 175 -49 6 -4 25 -8 42 -9 l33 -2 -26 57 c-38
83 -73 178 -79 216 -10 61 -32 76 -210 148 -212 86 -443 199 -453 222 -2 4 -9
7 -15 7 -7 0 -45 25 -86 55 -75 56 -101 66 -101 40z m543 -384 c30 -29 0 -89
-49 -97 -30 -5 -33 -2 -62 58 -1 4 9 20 23 34 20 20 32 24 53 19 15 -3 30 -10
35 -14z"/>
<path d="M4830 6731 c-5 -11 -10 -24 -10 -29 0 -16 55 -68 126 -118 38 -26 71
-51 74 -54 22 -23 214 -162 236 -170 69 -26 72 21 6 81 -105 96 -318 255 -394
295 -25 13 -28 12 -38 -5z"/>
<path d="M3050 6670 c-11 -7 -14 -33 -15 -115 l0 -106 30 -17 c17 -9 32 -19
35 -22 3 -3 25 -16 50 -28 109 -55 109 -85 0 -36 -103 46 -113 45 -105 -8 4
-24 10 -47 14 -53 4 -5 14 -26 21 -45 41 -104 117 -200 179 -226 39 -17 177
-64 201 -69 18 -4 247 -82 275 -94 11 -5 58 -23 105 -41 47 -18 99 -38 115
-45 151 -64 217 -63 345 4 232 120 469 256 493 282 28 30 31 59 13 100 -10 22
-80 41 -136 37 -40 -3 -47 -7 -62 -37 l-16 -33 -16 30 c-17 32 -31 38 -121 47
-33 3 -75 8 -93 11 -19 2 -62 7 -95 10 -34 3 -75 7 -92 9 -16 2 -57 6 -90 9
-33 4 -76 8 -95 11 -19 3 -62 8 -95 10 -33 3 -76 8 -95 11 -106 15 -139 14
-150 -5 -15 -30 -12 -47 15 -87 27 -40 32 -80 11 -106 -33 -44 -139 -22 -151
31 -7 33 6 64 66 153 22 31 39 60 39 63 0 24 -114 106 -300 215 -69 41 -152
91 -184 112 -63 40 -72 43 -96 28z m1145 -681 c28 -45 -7 -92 -46 -61 -33 28
-18 62 33 71 4 0 10 -4 13 -10z"/>
<path d="M4801 6601 c-7 -13 -4 -25 11 -48 22 -30 243 -196 328 -245 41 -25
49 -26 66 -14 18 14 16 17 -38 70 -81 79 -286 229 -340 249 -12 4 -21 0 -27
-12z"/>
<path d="M4650 6580 c0 -26 79 -88 93 -73 11 10 -13 44 -46 63 -36 22 -47 25
-47 10z"/>
<path d="M5665 6568 c-11 -6 -35 -24 -52 -41 -38 -36 -38 -37 52 -105 33 -26
66 -52 73 -59 9 -9 37 -11 90 -9 42 2 94 4 114 5 48 1 43 15 -27 66 -30 22
-54 43 -55 48 0 4 -5 7 -12 7 -6 0 -21 8 -32 19 -12 10 -46 32 -76 49 -44 25
-59 29 -75 20z"/>
<path d="M1114 6513 c-11 -8 -19 -29 -29 -70 -3 -10 -9 -38 -16 -63 -6 -25
-13 -54 -15 -65 -14 -56 -15 -112 -2 -122 28 -24 262 -94 358 -108 86 -13 83
-15 76 58 -6 59 -13 102 -16 102 -1 0 -3 11 -6 25 -18 113 -47 176 -87 190
-110 40 -244 66 -263 53z m189 -203 c6 -22 -10 -40 -35 -40 -12 0 -18 8 -18
23 0 44 42 58 53 17z"/>
<path d="M4797 6466 c-12 -31 246 -256 294 -256 10 0 24 10 30 22 11 20 7 26
-33 63 -56 51 -254 185 -272 185 -8 0 -16 -6 -19 -14z"/>
<path d="M1706 6446 c3 -9 11 -16 16 -16 13 0 5 23 -10 28 -7 2 -10 -2 -6 -12z"/>
<path d="M5504 6447 c-11 -7 -38 -26 -59 -44 l-38 -32 43 -41 c48 -45 59 -47
142 -24 78 22 89 43 43 82 -64 53 -107 72 -131 59z"/>
<path d="M1487 6423 c-6 -11 -1 -45 17 -123 14 -61 22 -107 31 -174 9 -63 40
-83 134 -90 50 -3 52 2 37 134 -5 36 -10 72 -12 80 -1 8 -6 28 -9 44 -15 71
-32 94 -77 106 -24 6 -50 13 -58 16 -30 11 -59 14 -63 7z"/>
<path d="M1724 6333 c12 -88 55 -286 64 -295 14 -14 84 -25 223 -33 46 -3 104
-7 129 -10 147 -13 240 -16 240 -8 0 5 -14 18 -32 28 -54 34 -112 69 -164 99
-53 31 -63 38 -229 144 -138 88 -184 112 -213 112 -22 0 -23 -3 -18 -37z"/>
<path d="M4815 6312 c11 -63 30 -82 78 -82 67 0 72 11 26 50 -23 19 -47 39
-53 45 -6 6 -22 14 -34 18 -23 5 -24 4 -17 -31z"/>
<path d="M5295 6288 c-52 -48 -53 -68 -3 -94 27 -14 32 -13 76 11 26 14 56 33
67 41 20 15 19 16 -20 50 -22 18 -47 34 -57 34 -9 0 -37 -19 -63 -42z"/>
<path d="M1980 6307 c0 -25 212 -159 355 -225 l50 -23 -27 23 c-15 13 -61 48
-104 78 -42 30 -82 61 -90 68 -7 6 -17 12 -22 12 -5 0 -15 7 -22 16 -21 24
-140 68 -140 51z"/>
<path d="M5840 6299 c0 -17 64 -75 95 -87 17 -6 59 -13 94 -17 101 -9 165 -16
179 -20 43 -14 -25 54 -83 83 -35 17 -55 23 -125 39 -41 9 -160 10 -160 2z"/>
<path d="M5674 6284 c-92 -27 -108 -56 -53 -95 42 -29 115 -29 183 2 33 15 32
20 -1 56 -39 41 -78 52 -129 37z"/>
<path d="M2230 6251 c0 -14 73 -74 164 -135 45 -30 127 -86 184 -125 87 -58
166 -96 247 -118 127 -33 140 -32 94 10 -19 17 -82 69 -140 114 -57 45 -123
101 -147 123 -23 22 -56 47 -73 55 -27 15 -147 49 -209 61 -14 3 -41 9 -60 14
-44 12 -60 12 -60 1z"/>
<path d="M5442 6189 c-28 -16 -54 -34 -57 -40 -8 -12 29 -55 65 -74 23 -12 31
-10 83 22 31 19 57 39 57 44 0 12 -57 62 -79 71 -11 4 -37 -5 -69 -23z"/>
<path d="M5152 6184 c-29 -20 -28 -38 4 -63 29 -23 64 -27 95 -11 28 15 23 36
-14 64 -39 30 -54 32 -85 10z"/>
<path d="M4868 6169 c-19 -12 4 -74 27 -75 43 -1 142 73 103 77 -50 5 -120 4
-130 -2z"/>
<path d="M3583 6153 c-15 -6 -17 -49 -3 -58 25 -15 49 -13 55 6 14 43 -12 69
-52 52z"/>
<path d="M5821 6149 c-44 -9 -91 -33 -91 -47 0 -13 23 -39 50 -55 18 -12 53
-16 131 -16 58 0 111 4 118 9 18 10 -115 120 -143 119 -12 -1 -41 -5 -65 -10z"/>
<path d="M6027 6154 c-19 -19 43 -83 168 -175 44 -33 85 -64 92 -69 24 -20 44
-10 62 33 35 80 35 93 -1 120 -46 34 -104 62 -163 77 -56 14 -150 22 -158 14z"/>
<path d="M1033 6143 c-12 -4 -32 -62 -38 -113 -16 -119 -19 -184 -20 -385 0
-204 10 -429 20 -445 2 -3 6 -31 10 -63 5 -54 15 -112 30 -177 3 -14 10 -46
15 -73 5 -26 14 -56 20 -67 6 -11 8 -20 6 -20 -10 0 63 -189 104 -271 90 -180
229 -352 364 -449 49 -35 165 -97 201 -106 6 -2 44 -13 85 -25 170 -50 230
-57 459 -55 119 1 226 5 239 9 12 4 31 9 42 11 10 3 36 12 57 21 21 9 54 23
73 32 154 66 306 237 354 400 10 32 20 65 23 73 13 34 24 111 24 175 1 182
-62 363 -179 521 -111 150 -263 262 -421 310 -68 20 -431 14 -491 -9 -122 -46
-151 -72 -145 -129 8 -69 22 -81 63 -52 49 34 159 85 197 91 22 4 78 7 125 7
79 0 111 -4 184 -19 34 -7 124 -51 149 -73 9 -8 17 -11 17 -6 0 5 4 4 8 -1 4
-6 33 -30 65 -54 32 -24 76 -67 100 -95 23 -28 44 -53 47 -56 25 -22 94 -171
111 -240 36 -142 30 -315 -15 -448 -62 -184 -195 -321 -372 -383 -81 -29 -103
-32 -229 -32 -174 -1 -305 28 -465 101 -110 50 -302 206 -394 322 -75 94 -143
219 -180 334 -22 67 -29 97 -42 186 -5 39 -5 322 1 351 21 111 110 314 167
384 54 65 47 38 -40 -146 -76 -161 -87 -212 -87 -404 0 -233 21 -339 102 -504
39 -80 139 -222 192 -271 188 -176 359 -266 577 -304 88 -16 248 -18 309 -4
22 6 47 11 56 13 124 26 299 186 353 323 91 232 53 539 -89 712 -146 178 -340
280 -532 278 -132 -2 -223 -37 -310 -121 -61 -59 -53 -110 8 -56 40 36 125 88
155 95 16 4 33 9 39 12 37 22 190 18 270 -6 145 -45 286 -172 358 -324 38 -79
55 -163 55 -265 0 -221 -97 -382 -288 -479 -53 -28 -60 -28 -227 -30 -94 -1
-193 3 -220 8 -64 13 -223 91 -287 141 -146 115 -272 296 -344 497 -29 80 -34
111 -38 240 -3 90 1 133 16 197 20 86 72 202 117 263 30 41 174 180 186 180 4
0 14 14 21 32 13 30 13 64 0 137 -9 52 -11 73 -13 103 -1 31 -20 44 -77 52
-22 4 -49 8 -60 10 -31 6 -46 -8 -50 -45 -5 -41 -21 -60 -34 -39 -6 8 -9 24
-9 35 1 11 -1 28 -5 37 -8 18 -89 52 -141 61 -32 5 -151 39 -225 64 -76 26
-95 30 -107 26z m167 -198 c0 -23 -40 -40 -56 -23 -12 12 -12 17 2 36 12 18
19 20 35 12 10 -6 19 -17 19 -25z m172 -82 c32 -30 35 -51 13 -92 -16 -31 -49
-42 -85 -29 -51 19 -65 76 -29 122 27 34 65 34 101 -1z m208 -23 c0 -5 -4 -10
-9 -10 -6 0 -13 5 -16 10 -3 6 1 10 9 10 9 0 16 -4 16 -10z m74 -71 c-3 -5
-10 -7 -15 -3 -5 3 -7 10 -3 15 3 5 10 7 15 3 5 -3 7 -10 3 -15z m-164 -1184
c15 -18 5 -35 -21 -35 -12 0 -19 7 -19 18 0 33 20 42 40 17z"/>
<path d="M2690 6130 c0 -11 78 -79 167 -146 187 -141 297 -200 488 -263 128
-41 205 -57 205 -41 0 15 -350 292 -409 323 -114 62 -451 157 -451 127z"/>
<path d="M5020 6102 c-59 -28 -108 -62 -114 -78 -15 -38 147 -360 196 -390 7
-4 29 13 56 42 45 51 162 219 162 234 0 11 -145 145 -197 181 -47 33 -55 34
-103 11z"/>
<path d="M5315 6092 c-21 -4 -55 -30 -55 -42 0 -12 54 -67 78 -79 19 -10 28
-10 46 3 13 8 23 23 22 33 -3 45 -54 93 -91 85z"/>
<path d="M5591 6075 c-74 -35 -79 -63 -19 -108 23 -17 30 -18 62 -6 20 7 36
17 36 21 0 4 6 8 13 8 8 0 21 8 31 18 15 18 15 20 -1 38 -10 11 -30 27 -44 36
-25 16 -29 15 -78 -7z"/>
<path d="M6470 6030 c13 -11 25 -18 28 -15 8 8 -19 35 -36 35 -11 0 -9 -5 8
-20z"/>
<path d="M4670 5928 c-74 -38 -155 -84 -180 -102 -25 -17 -92 -56 -150 -85
-116 -58 -135 -71 -123 -82 4 -4 55 -33 113 -64 58 -32 155 -88 216 -126 104
-65 114 -69 140 -58 16 6 38 15 49 19 34 14 137 61 212 97 118 58 117 45 22
234 -45 90 -89 180 -98 199 -12 26 -23 35 -41 36 -14 1 -86 -30 -160 -68z
m150 -182 c0 -3 -4 -8 -10 -11 -5 -3 -10 -1 -10 4 0 6 5 11 10 11 6 0 10 -2
10 -4z"/>
<path d="M5898 5984 c-55 -16 29 -97 112 -109 25 -3 56 -8 70 -10 14 -2 56 -6
95 -10 38 -4 72 -8 75 -10 3 -2 12 0 19 4 18 11 -59 73 -131 106 -40 18 -77
26 -139 29 -46 3 -92 2 -101 0z"/>
<path d="M6416 5968 c-28 -42 -47 -101 -42 -122 4 -12 40 -48 82 -81 41 -33
87 -70 102 -82 36 -31 58 -29 77 7 23 45 18 74 -24 127 -39 48 -164 173 -175
173 -3 0 -12 -10 -20 -22z"/>
<path d="M1793 5963 c-6 -14 1 -95 13 -170 10 -64 22 -70 111 -52 76 16 241
18 333 5 113 -17 297 -97 444 -194 39 -26 75 -49 81 -51 11 -5 105 -76 215
-165 102 -81 100 -80 106 -73 9 9 -59 126 -124 214 -69 92 -165 184 -301 291
-19 15 -43 35 -53 45 -10 9 -20 17 -23 17 -2 0 -28 15 -57 33 -29 19 -66 38
-83 42 -16 5 -32 9 -35 10 -39 11 -207 34 -290 40 -25 1 -85 6 -135 10 -161
13 -196 13 -202 -2z"/>
<path d="M5434 5955 c-30 -30 -30 -46 -1 -73 29 -27 47 -28 81 -1 32 25 33 39
4 66 -38 33 -57 35 -84 8z"/>
<path d="M5716 5954 c-59 -27 -73 -46 -50 -68 23 -24 77 -24 167 -1 33 9 34
18 5 45 -48 45 -68 49 -122 24z"/>
<path d="M3356 5909 c16 -17 59 -53 159 -132 6 -4 42 -31 80 -61 l70 -53 115
4 c99 3 186 8 213 12 4 0 7 5 7 11 0 21 -228 114 -450 181 -36 11 -72 23 -80
26 -8 4 -17 7 -20 8 -108 32 -120 33 -94 4z"/>
<path d="M5549 5850 c-41 -35 -29 -50 33 -44 67 7 78 28 30 56 -28 17 -30 17
-63 -12z"/>
<path d="M5321 5823 c-47 -54 -76 -102 -66 -111 8 -8 99 39 140 72 33 27 30
46 -12 73 -19 13 -24 10 -62 -34z"/>
<path d="M2800 5830 c0 -11 72 -75 165 -146 50 -37 92 -71 95 -74 3 -3 21 -17
40 -30 19 -14 40 -28 45 -32 114 -90 550 -378 573 -378 6 0 12 -4 14 -9 2 -5
30 -22 63 -38 56 -28 63 -29 105 -18 25 7 69 22 98 35 51 22 52 23 35 42 -18
21 -206 117 -318 163 -210 86 -595 278 -582 291 8 8 82 -23 282 -116 56 -26
176 -79 270 -118 22 -9 119 -56 216 -104 200 -98 247 -115 267 -94 14 13 15
12 -71 82 -26 21 -227 154 -233 154 -3 0 -24 13 -48 29 -23 16 -63 41 -89 55
-26 14 -66 37 -89 49 -51 28 -344 126 -428 142 -8 2 -15 4 -15 5 0 1 -7 3 -15
5 -8 1 -62 17 -120 35 -58 18 -114 34 -125 37 -11 3 -27 7 -35 11 -37 14 -100
28 -100 22z m1030 -616 c0 -8 -5 -12 -10 -9 -6 4 -8 11 -5 16 9 14 15 11 15
-7z"/>
<path d="M5778 5822 c-11 -12 -6 -20 27 -50 22 -19 55 -41 72 -48 48 -21 173
-4 155 21 -19 27 -77 66 -115 76 -66 18 -125 18 -139 1z"/>
<path d="M6044 5818 c-7 -12 63 -86 105 -111 29 -17 30 -17 65 17 61 57 46 77
-70 91 -32 4 -67 9 -76 11 -10 1 -20 -2 -24 -8z"/>
<path d="M6315 5772 c-39 -33 -76 -92 -71 -110 3 -10 18 -25 33 -34 16 -9 39
-27 53 -40 50 -47 155 -128 165 -128 14 1 75 83 80 108 7 36 -59 108 -162 177
-67 46 -74 48 -98 27z"/>
<path d="M5612 5751 c-18 -11 73 -91 104 -91 25 0 94 30 94 40 0 4 -17 19 -38
34 -30 20 -50 26 -93 26 -29 0 -60 -4 -67 -9z"/>
<path d="M2790 5747 c0 -4 24 -33 78 -92 164 -180 188 -213 312 -437 36 -64
180 -219 255 -274 22 -16 42 -32 45 -35 3 -3 43 -28 90 -56 85 -49 228 -113
390 -173 47 -18 121 -46 165 -62 44 -16 117 -43 162 -58 112 -39 117 -32 42
62 -73 92 -152 171 -254 255 -121 100 -124 103 -130 103 -3 0 -39 22 -80 49
-41 27 -100 64 -131 81 -62 34 -98 57 -299 188 -120 78 -272 183 -371 257 -22
16 -53 39 -68 50 -15 11 -47 34 -70 51 -63 46 -136 95 -136 91z"/>
<path d="M5450 5743 c-80 -29 -300 -149 -300 -163 0 -25 165 -200 189 -200 6
0 11 -4 11 -8 0 -4 25 -21 56 -36 47 -24 64 -27 111 -23 64 6 84 21 89 69 9
80 21 136 39 189 15 40 14 45 -3 68 -24 33 -124 101 -154 106 -13 2 -30 1 -38
-2z"/>
<path d="M1990 5713 c-51 -8 -136 -35 -152 -50 -10 -9 -15 -25 -12 -41 2 -15
5 -36 7 -47 5 -38 14 -43 58 -34 22 5 56 16 75 24 19 8 34 11 34 8 0 -3 7 0
16 7 19 16 252 24 274 10 12 -8 10 -10 -10 -11 -14 -1 -41 -2 -60 -4 -28 -1
-123 -14 -150 -20 -51 -11 -163 -55 -187 -73 -69 -51 -28 -72 62 -33 63 28 98
40 130 46 37 7 331 7 365 0 70 -14 90 -20 156 -50 180 -82 336 -225 432 -395
34 -60 79 -173 87 -217 2 -15 8 -49 13 -74 65 -345 -136 -728 -440 -840 -29
-11 -92 -29 -140 -40 -49 -11 -88 -25 -88 -29 0 -32 118 -29 245 4 28 8 57 15
65 17 8 2 17 6 20 9 3 3 25 14 50 25 93 42 221 153 284 250 111 169 153 323
148 535 -5 196 -45 329 -100 331 -53 2 -69 10 -94 48 -13 18 -14 28 -6 47 15
32 25 30 33 -6 4 -17 15 -35 26 -40 16 -9 21 -7 29 15 12 32 6 45 -29 70 -15
11 -68 57 -117 103 -255 238 -523 395 -757 443 -53 11 -221 18 -267 12z"/>
<path d="M6672 5658 c-23 -43 -17 -73 29 -148 25 -41 64 -115 88 -164 30 -62
46 -85 51 -75 21 33 -60 307 -112 382 -23 33 -41 34 -56 5z"/>
<path d="M5973 5657 c-3 -5 4 -15 15 -23 12 -8 27 -20 34 -28 33 -33 54 -36
77 -12 30 32 27 53 -11 62 -48 11 -108 12 -115 1z"/>
<path d="M4016 5642 c-3 -2 -51 -6 -108 -8 -125 -5 -178 -10 -185 -17 -14 -15
133 -125 372 -278 160 -102 160 -102 343 -30 141 56 157 72 108 104 -13 9 -29
22 -37 29 -18 17 -100 62 -263 144 -112 56 -136 65 -178 63 -27 -2 -50 -4 -52
-7z m-44 -59 c28 -33 28 -50 1 -77 -30 -30 -32 -31 -61 -10 -14 10 -22 26 -22
44 0 18 8 34 22 44 29 20 41 20 60 -1z"/>
<path d="M5824 5639 c-59 -16 -60 -32 -2 -83 67 -59 70 -61 96 -75 26 -14 53
-3 76 30 20 28 6 55 -47 96 -48 36 -78 44 -123 32z"/>
<path d="M1704 5594 c-62 -46 -97 -84 -144 -154 -34 -50 -76 -144 -86 -195
-22 -107 -22 -270 0 -380 35 -171 185 -409 335 -528 83 -67 257 -147 351 -162
54 -9 220 -13 220 -5 0 3 14 7 31 8 18 1 37 6 43 9 6 4 16 8 23 9 28 5 109 52
150 88 61 54 99 112 127 198 20 62 23 89 21 183 -4 131 -5 140 -47 224 -42 86
-69 124 -137 191 -165 161 -399 190 -571 71 -30 -21 -69 -56 -87 -79 -33 -44
-36 -77 -12 -139 l11 -28 26 35 c55 73 113 120 170 136 108 32 188 18 262 -45
101 -86 150 -162 150 -235 0 -22 -7 -66 -16 -98 -57 -201 -342 -287 -534 -159
-151 100 -195 209 -166 401 7 43 17 103 19 112 1 3 -2 7 -8 9 -5 1 -19 -11
-30 -28 -46 -71 -46 -71 -41 -43 7 39 13 61 31 110 29 78 37 144 22 177 -10
22 -12 22 -34 7 -14 -8 -33 -24 -44 -35 -21 -21 -44 -26 -33 -6 4 6 23 35 44
62 66 90 72 138 13 100 -60 -40 -132 -144 -161 -235 -107 -326 62 -657 401
-784 81 -31 133 -40 232 -39 216 2 394 161 420 373 3 30 9 64 12 75 l6 20 7
-20 c11 -31 4 -135 -13 -180 -34 -94 -83 -160 -160 -217 -101 -75 -121 -81
-301 -83 -89 -1 -165 2 -171 6 -5 4 -48 26 -95 50 -207 104 -329 235 -383 409
-36 116 -39 281 -7 366 5 13 7 24 5 24 -3 0 10 30 29 68 44 85 83 134 171 211
39 34 45 57 30 130 -10 52 -28 55 -81 15z m-16 -582 c4 -23 -4 -27 -27 -13
-17 11 -7 45 12 39 6 -3 13 -14 15 -26z m952 -647 c0 -7 -7 -16 -15 -19 -18
-7 -30 16 -21 40 5 13 9 14 21 4 8 -7 15 -18 15 -25z"/>
<path d="M6174 5608 c-17 -8 -54 -65 -54 -84 0 -11 166 -166 210 -197 33 -23
41 -22 77 13 66 65 49 105 -93 208 -84 61 -111 73 -140 60z"/>
<path d="M5675 5520 c-19 -59 -25 -118 -14 -148 6 -16 16 -21 36 -20 15 1 33
4 38 7 6 3 16 6 24 8 21 3 99 44 110 57 18 21 -114 146 -153 146 -20 0 -27 -8
-41 -50z"/>
<path d="M4950 5486 c-69 -34 -151 -73 -182 -86 -52 -21 -55 -24 -41 -39 55
-55 72 -61 223 -76 80 -8 206 -34 248 -51 70 -29 147 -69 155 -81 4 -7 14 -13
21 -13 7 0 24 -10 38 -22 13 -13 44 -40 69 -60 24 -20 76 -66 114 -102 39 -36
76 -66 83 -66 7 0 11 4 8 9 -3 5 -8 26 -10 47 -3 34 -14 95 -30 182 -8 36 -14
41 -100 82 -45 21 -98 50 -119 64 -21 14 -42 26 -47 26 -4 0 -10 3 -12 8 -1 4
-21 19 -43 34 -22 15 -61 47 -87 70 -25 24 -62 57 -80 74 -77 70 -68 70 -208
0z"/>
<path d="M6605 5517 c-36 -41 -57 -78 -57 -99 0 -13 20 -56 45 -96 54 -83 111
-195 157 -306 30 -71 34 -77 46 -61 24 32 1 229 -39 340 -38 105 -113 236
-135 235 -4 -1 -12 -6 -17 -13z"/>
<path d="M6033 5479 c-46 -29 -42 -53 20 -113 140 -136 165 -153 205 -134 50
24 41 55 -40 135 -58 57 -145 134 -152 133 0 0 -16 -10 -33 -21z"/>
<path d="M5885 5382 c-16 -10 -64 -31 -105 -46 -83 -31 -121 -63 -113 -96 6
-24 45 -52 77 -58 144 -22 306 -23 369 -3 34 11 36 14 26 34 -14 26 -100 114
-153 156 -45 36 -60 38 -101 13z"/>
<path d="M6455 5332 c-69 -62 -69 -64 1 -179 61 -100 98 -183 109 -240 3 -16
7 -41 10 -58 3 -16 8 -38 11 -47 3 -9 7 -27 9 -40 6 -29 75 -168 84 -168 18 1
33 22 50 76 26 78 29 109 19 164 -5 25 -11 56 -14 69 -18 91 -91 255 -162 366
-62 97 -69 101 -117 57z"/>
<path d="M4620 5343 c-8 -3 -29 -11 -47 -19 -17 -8 -34 -14 -37 -14 -18 0
-155 -72 -159 -84 -4 -9 -1 -13 6 -11 7 2 50 11 97 20 125 25 123 24 150 31
14 3 32 6 40 6 18 1 40 17 40 29 0 13 -73 47 -90 42z"/>
<path d="M5565 5270 c-8 -13 13 -40 30 -40 18 0 26 25 12 39 -14 14 -34 14
-42 1z"/>
<path d="M4675 5229 c-71 -10 -117 -19 -140 -26 -11 -4 -24 -7 -30 -8 -31 -2
-75 -18 -75 -26 0 -5 33 -30 73 -56 144 -92 269 -174 281 -184 6 -5 64 -48
129 -95 64 -47 117 -90 117 -95 0 -5 7 -9 16 -9 8 0 118 -104 244 -231 125
-126 231 -226 234 -220 12 19 -90 253 -157 358 -15 24 -27 45 -27 48 0 10 -73
110 -124 170 -69 81 -229 241 -296 297 -95 79 -139 92 -245 77z m170 -190 c-3
-4 -12 -6 -20 -3 -8 4 -13 10 -10 15 3 4 12 6 20 3 8 -4 13 -10 10 -15z m423
-373 c3 -15 1 -16 -17 -6 -12 6 -19 16 -15 21 9 15 28 5 32 -15z"/>
<path d="M4935 5229 c-4 -5 47 -64 112 -132 66 -67 134 -138 152 -157 54 -59
166 -211 209 -287 45 -77 133 -260 136 -284 3 -22 60 -109 69 -106 20 6 65
107 82 182 19 83 25 202 13 265 -11 59 -40 99 -167 228 -186 188 -313 264
-481 288 -88 12 -120 13 -125 3z m460 -279 c-3 -5 -11 -10 -16 -10 -6 0 -7 5
-4 10 3 6 11 10 16 10 6 0 7 -4 4 -10z"/>
<path d="M6303 5207 c-35 -18 -44 -38 -28 -60 39 -56 221 -247 235 -247 18 0
-17 113 -55 175 -14 22 -29 49 -34 61 -13 30 -66 81 -84 81 -9 0 -24 -5 -34
-10z"/>
<path d="M4227 5172 c-15 -9 -27 -19 -27 -22 1 -6 77 -60 225 -160 429 -289
725 -554 953 -855 8 -10 29 -54 72 -150 28 -64 46 -84 95 -106 47 -22 71 -24
78 -6 4 11 -2 66 -18 157 -8 42 -39 115 -57 134 -7 8 -62 67 -123 132 -360
390 -601 583 -1042 833 -108 61 -120 64 -156 43z"/>
<path d="M5694 5138 c-6 -9 26 -176 57 -303 19 -73 51 -140 131 -270 17 -27
60 -106 96 -175 100 -193 123 -229 141 -222 81 29 249 199 292 294 5 13 16 34
24 47 20 36 10 167 -20 252 -8 21 -11 39 -8 39 4 0 2 5 -5 12 -7 7 -12 18 -12
24 0 21 -76 174 -117 239 l-39 60 -235 1 c-129 0 -249 3 -267 6 -18 2 -35 0
-38 -4z m495 -317 l35 -28 -37 -39 c-36 -38 -36 -38 -54 -19 -45 51 -45 51
-17 84 14 17 29 31 32 31 4 0 22 -13 41 -29z"/>
<path d="M4050 5114 c-50 -17 -89 -34 -107 -47 -19 -14 -10 -21 197 -152 143
-91 246 -160 248 -167 2 -4 10 -8 18 -8 8 0 14 -4 14 -9 0 -5 8 -12 18 -15 10
-4 27 -14 38 -24 11 -9 46 -35 78 -57 33 -22 64 -44 70 -50 6 -5 38 -30 71
-55 85 -63 168 -132 254 -209 75 -67 90 -82 171 -167 70 -73 238 -194 270
-194 15 0 12 38 -7 78 -39 85 -123 194 -258 332 -140 144 -294 280 -425 375
-30 22 -59 43 -65 48 -21 17 -179 127 -277 193 -57 38 -105 71 -108 74 -20 20
-115 70 -133 70 -12 -1 -42 -8 -67 -16z"/>
<path d="M6867 5080 c-3 -8 -5 -22 -5 -30 0 -20 -11 -118 -17 -152 -4 -22 30
-135 36 -118 1 3 2 66 4 140 2 129 -6 196 -18 160z"/>
<path d="M2167 5048 c-10 -5 -17 -6 -17 -3 0 9 -73 -32 -101 -57 -48 -43 -81
-113 -85 -180 -2 -38 2 -71 11 -87 51 -99 198 -154 309 -115 114 41 177 190
128 304 -20 48 -86 114 -128 131 -38 14 -99 18 -117 7z"/>
<path d="M3276 4983 c3 -16 8 -35 11 -43 26 -67 37 -298 21 -430 -6 -52 -49
-197 -65 -223 -4 -7 -8 -14 -8 -17 -4 -29 -93 -167 -150 -231 -65 -73 -201
-169 -240 -169 -8 0 -15 -4 -15 -9 0 -10 -150 -61 -180 -61 -37 0 -21 -29 30
-52 63 -29 202 -95 335 -158 236 -113 377 -165 474 -177 105 -13 277 -8 424
12 33 4 77 31 77 47 0 13 -75 87 -170 168 -88 74 -261 247 -291 290 -13 19
-38 68 -56 109 -28 68 -31 84 -29 167 2 80 6 100 34 156 27 56 67 105 117 146
20 17 117 62 147 68 29 6 127 6 153 0 168 -37 304 -151 361 -301 29 -77 26
-204 -7 -275 -43 -91 -117 -161 -194 -181 -65 -18 -160 -20 -181 -4 -17 13
-16 14 21 14 22 0 49 2 60 4 11 3 34 8 50 12 177 44 272 235 210 420 -49 146
-213 266 -368 268 -93 1 -137 -7 -195 -37 -110 -57 -155 -139 -159 -285 -3
-106 9 -155 59 -236 32 -53 185 -209 278 -285 30 -25 57 -48 60 -52 3 -4 46
-39 94 -77 58 -45 94 -67 105 -63 48 17 145 99 208 175 32 38 94 164 99 201 8
54 7 260 -1 296 -20 93 -89 206 -180 295 -89 86 -146 119 -375 215 -208 87
-335 159 -488 280 -35 28 -67 50 -73 50 -5 0 -7 -12 -3 -27z m634 -573 c12 -8
10 -10 -10 -11 -14 0 -54 -2 -90 -4 -63 -2 -95 -14 -147 -51 -13 -9 -23 -12
-23 -6 0 17 61 59 100 70 46 13 151 14 170 2z m145 -92 c92 -108 90 -219 -8
-319 -71 -73 -170 -94 -255 -54 -170 81 -189 265 -36 352 72 41 171 25 212
-35 48 -69 51 -130 9 -182 -48 -61 -163 -58 -197 4 -37 70 53 156 95 92 13
-20 14 -29 5 -46 -15 -27 -36 -20 -33 11 3 41 -5 53 -23 38 -36 -30 6 -109 58
-109 26 0 77 51 82 81 10 62 -55 129 -127 129 -77 0 -147 -67 -147 -142 0 -92
84 -168 193 -173 54 -3 66 -1 97 23 121 92 133 193 39 340 -30 46 -7 40 36
-10z m-789 -394 c-4 -9 -9 -15 -11 -12 -3 3 -3 13 1 22 4 9 9 15 11 12 3 -3 3
-13 -1 -22z m-172 -122 c-38 -29 -105 -53 -164 -59 -82 -8 -78 11 8 30 37 9
87 25 112 36 47 21 75 17 44 -7z m144 -30 c2 -7 -4 -15 -13 -18 -20 -8 -27 -1
-19 20 7 18 25 17 32 -2z m248 -211 c-11 -18 -36 -13 -36 7 0 10 3 22 7 26 10
10 37 -20 29 -33z"/>
<path d="M1864 4867 c-5 -15 -1 -58 12 -126 6 -30 76 -119 117 -147 81 -57
144 -76 233 -70 69 4 121 25 181 73 47 38 93 121 93 170 0 38 -16 44 -25 11
-23 -85 -85 -168 -145 -195 -45 -20 -108 -42 -111 -38 -2 2 -27 6 -55 9 -62 7
-112 28 -160 66 -35 29 -90 128 -104 186 -15 67 -26 85 -36 61z"/>
<path d="M6444 4835 c8 -39 9 -40 30 -104 13 -38 21 -49 27 -40 22 35 -1 118
-43 156 -21 18 -21 18 -14 -12z"/>
<path d="M4357 4663 c110 -166 120 -176 247 -238 213 -104 421 -279 528 -446
60 -92 149 -263 167 -321 13 -39 37 -66 49 -54 10 11 -33 129 -85 231 -83 164
-197 319 -310 425 -80 75 -268 227 -408 331 -55 40 -102 76 -105 80 -8 8 -127
79 -134 79 -3 0 20 -39 51 -87z"/>
<path d="M6535 4623 c-21 -60 -25 -122 -13 -184 17 -86 30 -89 78 -16 26 39
34 62 34 92 -1 45 -50 165 -68 165 -7 0 -21 -26 -31 -57z"/>
<path d="M5766 4612 c-4 -10 -8 -47 -11 -82 -6 -79 -19 -128 -55 -204 -73
-156 -72 -162 17 -197 76 -31 230 -33 281 -5 32 16 33 20 27 54 -10 56 -178
383 -223 435 -19 22 -29 22 -36 -1z"/>
<path d="M6763 4618 c-22 -28 -53 -103 -53 -130 0 -39 27 -101 42 -96 20 7 40
80 40 151 1 70 -10 99 -29 75z"/>
<path d="M4270 4497 c0 -7 10 -23 23 -37 54 -61 119 -185 143 -277 23 -88 24
-214 2 -302 -37 -142 -103 -242 -235 -354 -46 -38 -83 -73 -83 -77 0 -10 72
-100 165 -205 81 -93 207 -304 270 -455 49 -118 82 -185 96 -197 23 -19 66
-23 85 -8 18 13 18 16 -3 82 -29 91 -38 140 -48 242 -6 67 -21 94 -69 119 -49
26 -82 78 -85 132 -1 28 6 45 35 78 19 23 44 42 54 42 25 0 40 22 35 51 -3 13
-7 35 -10 49 -3 14 -11 49 -19 79 -25 93 -5 221 34 221 27 0 39 -48 41 -165 2
-134 7 -154 49 -202 60 -68 85 -160 59 -215 -6 -13 -30 -39 -53 -58 -35 -29
-42 -40 -40 -65 19 -191 29 -217 91 -234 37 -10 40 -33 9 -74 -14 -19 -26 -39
-26 -45 0 -16 40 -41 60 -37 10 2 35 6 56 9 22 3 76 24 121 46 143 71 267 218
299 358 16 68 10 304 -8 317 -2 1 -45 25 -96 54 -244 139 -454 343 -567 554
-20 38 -72 161 -116 274 -43 114 -90 221 -104 239 -19 25 -42 38 -91 54 -78
24 -74 23 -74 7z m790 -1264 c0 -5 -5 -15 -10 -23 -9 -13 -11 -13 -19 0 -5 8
-7 18 -5 22 6 10 34 11 34 1z m47 -283 c15 -31 2 -63 -31 -75 -34 -12 -57 2
-71 40 -8 24 -6 30 19 50 34 27 64 21 83 -15z"/>
<path d="M6440 4422 c-48 -70 -164 -188 -271 -276 l-57 -47 23 -72 c56 -174
65 -182 160 -131 142 75 200 138 193 212 -4 42 -11 43 -53 4 -35 -33 -99 -82
-137 -107 -50 -32 -29 1 56 87 124 126 135 145 130 226 -5 83 -10 132 -16 137
-2 2 -15 -13 -28 -33z"/>
<path d="M4522 4378 c64 -196 155 -413 206 -493 119 -187 341 -397 506 -480
l68 -34 -6 67 c-15 154 -99 372 -199 521 -49 71 -161 192 -240 259 -94 78
-287 192 -326 192 -18 0 -19 -3 -9 -32z"/>
<path d="M6631 4383 c-55 -68 -83 -133 -86 -197 -3 -65 5 -93 23 -82 23 14
102 145 113 187 13 50 5 119 -15 119 -7 0 -22 -12 -35 -27z"/>
<path d="M6771 4336 c-14 -25 -19 -181 -7 -193 13 -14 22 12 33 102 10 77 9
108 -3 112 -6 2 -16 -7 -23 -21z"/>
<path d="M6640 4125 c-22 -30 -40 -59 -40 -65 0 -5 -4 -10 -9 -10 -5 0 -13 -9
-16 -20 -3 -11 -12 -26 -20 -33 -7 -8 -16 -38 -20 -68 -3 -30 -10 -81 -15
-114 -14 -94 -22 -157 -25 -197 -2 -34 -1 -36 15 -25 62 43 147 192 176 305
15 60 25 228 16 265 -7 28 -19 20 -62 -38z"/>
<path d="M5650 4088 c0 -40 28 -202 39 -231 16 -41 51 -50 206 -50 169 -1 227
8 238 36 10 26 -54 223 -77 239 -6 4 -17 5 -25 3 -77 -29 -265 -23 -344 10
-36 15 -37 15 -37 -7z m359 -202 c10 -12 8 -17 -8 -25 -22 -12 -37 0 -27 24 7
19 20 19 35 1z"/>
<path d="M1470 4044 c0 -28 210 -245 315 -325 17 -13 32 -26 35 -29 4 -5 74
-59 214 -163 16 -12 58 -43 95 -69 36 -26 77 -56 90 -65 13 -10 38 -28 55 -41
76 -56 209 -201 263 -287 51 -81 108 -221 118 -290 3 -16 8 -55 13 -86 13 -86
3 -381 -14 -410 -2 -3 -6 -21 -9 -40 -3 -18 -17 -65 -31 -104 -13 -38 -25 -74
-26 -80 -7 -24 -112 -230 -120 -233 -4 -2 -8 -8 -8 -13 0 -9 -65 -113 -85
-135 -5 -6 -17 -22 -25 -34 -20 -30 -106 -135 -149 -183 -75 -82 -93 -103
-103 -122 -9 -17 -9 -18 3 -9 8 6 39 21 69 34 30 12 78 33 105 46 75 34 264
99 316 109 13 3 49 10 79 16 30 7 64 13 75 15 11 1 20 3 20 4 0 1 14 3 30 4
17 1 68 6 115 11 158 16 540 6 595 -15 12 -5 25 -7 27 -4 21 20 503 -128 516
-158 2 -4 10 -8 18 -8 8 0 75 -31 150 -70 233 -120 416 -279 719 -626 42 -48
170 -214 231 -299 85 -120 162 -216 180 -228 7 -4 -8 39 -31 96 -44 103 -56
134 -61 152 -1 6 -10 30 -18 54 -28 75 -44 163 -52 267 -13 184 -6 754 11 884
4 34 16 129 20 160 2 14 6 41 10 60 8 44 12 66 19 110 3 19 8 46 11 60 6 33
14 79 19 121 3 19 7 48 10 64 13 78 25 192 31 280 2 39 7 104 10 145 10 120
13 204 8 217 -3 7 -30 -13 -64 -47 -96 -95 -149 -137 -210 -170 -59 -31 -149
-63 -157 -55 -3 2 -18 -3 -34 -11 -27 -14 -30 -20 -25 -47 10 -57 27 -124 67
-272 17 -66 34 -127 36 -135 2 -8 8 -31 13 -50 35 -135 77 -331 71 -335 -8 -5
-68 170 -90 260 -6 28 -14 57 -17 65 -8 21 -9 24 -37 125 -28 102 -90 307
-105 346 -10 28 -40 39 -80 29 -30 -7 -33 -26 -15 -87 34 -113 107 -413 121
-498 6 -39 32 -117 43 -130 13 -15 80 -177 80 -192 0 -7 5 -13 10 -13 6 0 10
-4 10 -10 0 -5 11 -33 24 -62 35 -77 76 -180 76 -191 0 -5 -7 -4 -15 3 -9 7
-13 15 -11 18 3 2 -6 21 -19 41 -14 19 -25 41 -25 48 0 6 -6 18 -12 25 -7 7
-22 31 -34 53 -33 64 -65 118 -85 147 -11 14 -19 31 -19 36 0 6 -3 12 -7 14
-5 2 -35 44 -67 93 -69 105 -209 293 -261 350 -21 22 -74 80 -118 129 -150
164 -481 489 -678 666 -45 41 -108 98 -139 125 -30 28 -82 73 -114 100 -33 28
-75 64 -95 81 -20 17 -70 57 -111 90 -41 32 -77 61 -80 64 -3 3 -12 10 -21 15
-29 18 -164 110 -169 115 -3 3 -41 24 -85 47 -197 102 -433 180 -600 198 -33
3 -69 8 -80 12 -45 12 6 -19 135 -82 122 -61 239 -125 265 -148 6 -4 64 -47
130 -94 168 -120 237 -193 306 -328 32 -61 60 -126 65 -145 4 -19 9 -42 11
-50 8 -34 9 -200 2 -212 -5 -7 -9 -11 -10 -8 0 3 -2 12 -3 20 -2 8 -6 47 -9
86 -12 135 -93 335 -167 413 -59 62 -59 59 -8 -49 84 -176 108 -266 107 -390
l-1 -85 -19 75 c-23 94 -28 113 -34 148 -27 134 -135 325 -267 470 -39 43
-165 147 -207 171 -86 48 -116 63 -201 99 -90 39 -258 101 -380 142 -113 37
-268 103 -350 148 -102 56 -100 55 -100 46z m444 -281 c125 -54 304 -156 412
-236 133 -98 377 -356 457 -484 120 -191 157 -328 151 -558 -2 -82 -6 -166
-10 -185 -17 -101 -104 -287 -198 -428 -49 -72 -115 -147 -123 -139 -2 3 28
52 67 110 38 58 70 110 70 115 0 6 3 12 8 14 10 4 86 171 112 245 30 88 39
212 30 410 -3 64 -19 110 -21 63 -1 -14 -3 -47 -4 -75 -5 -96 -16 -240 -20
-271 -10 -70 -91 -280 -138 -359 -20 -33 -51 -80 -57 -85 -3 -3 -16 -22 -30
-42 -43 -65 -54 -51 -14 19 135 242 173 338 201 508 9 54 9 246 1 320 -6 51
-30 167 -41 200 -2 6 -7 24 -12 40 -13 54 -86 191 -127 241 -98 120 -306 314
-337 314 -6 0 -11 5 -11 10 0 6 -6 10 -14 10 -8 0 -16 4 -18 8 -3 9 -96 72
-104 72 -3 0 -18 8 -32 19 -15 10 -45 29 -67 41 -22 13 -59 34 -83 47 -110 62
-138 94 -48 56z m1491 -623 c8 0 15 -4 15 -10 0 -5 5 -10 11 -10 21 0 94 -66
263 -239 94 -96 331 -334 527 -530 195 -196 387 -394 425 -441 38 -47 72 -86
77 -88 4 -2 7 -10 7 -17 0 -7 4 -15 9 -17 18 -6 125 -176 175 -278 104 -211
124 -307 23 -112 -87 167 -76 149 -166 287 -42 66 -137 187 -205 264 -53 59
-320 324 -370 366 -26 22 -53 45 -59 50 -21 18 -108 80 -217 154 -108 74 -199
150 -254 211 -131 148 -284 281 -361 315 -19 7 -19 8 -2 12 19 5 132 -59 182
-102 17 -15 100 -95 185 -179 144 -141 231 -216 253 -216 35 0 -352 422 -470
512 -32 25 -77 56 -101 70 -50 29 -46 46 4 17 19 -10 41 -19 49 -19z m-160
-300 c-3 -5 -13 -10 -21 -10 -8 0 -14 5 -14 10 0 6 9 10 21 10 11 0 17 -4 14
-10z m220 -11 c39 -21 58 -39 50 -47 -2 -2 -17 5 -33 16 -15 11 -40 24 -55 27
-15 4 -30 11 -33 16 -10 16 31 9 71 -12z m100 -98 c3 -5 1 -12 -4 -15 -5 -3
-11 1 -15 9 -6 16 9 21 19 6z m-97 -71 c17 -16 22 -32 22 -69 0 -59 -8 -66
-195 -171 -71 -40 -141 -80 -155 -88 -18 -11 -14 -5 11 19 42 41 60 54 164
120 44 29 83 57 87 62 4 6 -7 26 -23 45 -32 36 -31 45 16 84 27 23 47 22 73
-2z m367 -211 c100 -27 252 -115 308 -178 15 -17 25 -31 22 -31 -2 0 -37 22
-77 48 -143 96 -185 115 -273 129 -49 7 -201 7 -235 0 -14 -3 -50 -11 -80 -18
-30 -6 -75 -20 -100 -31 -66 -29 -120 -48 -120 -42 0 6 184 94 203 98 7 2 32
8 56 15 103 29 210 33 296 10z m1269 -65 c9 -23 8 -24 -12 -24 -26 0 -34 11
-21 27 15 17 26 17 33 -3z m-1297 -59 c79 -12 87 -14 180 -59 247 -120 523
-330 678 -519 22 -27 45 -54 50 -60 18 -22 70 -92 80 -108 77 -129 161 -297
153 -305 -6 -5 -98 142 -98 156 0 6 -3 10 -8 10 -4 0 -12 8 -17 18 -50 93
-203 289 -301 386 -175 173 -415 337 -609 416 -55 23 -72 25 -220 24 -88 -1
-169 -3 -180 -6 -95 -22 -235 -83 -242 -104 -3 -8 12 -8 49 -2 29 5 68 11 87
14 19 2 37 6 40 8 8 5 119 17 193 20 202 9 472 -84 653 -226 6 -4 37 -29 70
-55 191 -148 390 -387 475 -568 18 -38 43 -84 56 -101 13 -17 21 -34 17 -37
-6 -7 -49 36 -103 103 -48 60 -230 242 -310 311 -79 67 -225 179 -235 179 -4
0 -20 9 -36 20 -39 28 -214 115 -270 133 -111 38 -221 60 -354 71 -96 9 -139
18 -126 26 17 10 200 10 247 0 21 -5 56 -11 76 -14 99 -15 322 -109 458 -193
169 -105 360 -268 448 -381 14 -18 34 -38 44 -43 19 -10 19 -9 2 23 -33 64
-126 179 -219 271 -53 53 -172 159 -200 179 -5 4 -23 18 -40 31 -100 78 -251
161 -360 197 -62 21 -89 24 -235 24 -91 0 -189 -3 -218 -7 -69 -9 -213 -56
-381 -123 -74 -30 -139 -53 -144 -51 -16 5 74 86 158 142 167 111 358 191 483
201 42 3 78 7 79 8 4 3 89 -3 130 -9z m1049 -198 c23 -83 54 -192 69 -242 15
-49 28 -94 29 -100 2 -5 8 -30 16 -55 19 -67 28 -110 24 -110 -10 0 -94 220
-120 310 -2 8 -11 40 -20 70 -35 124 -61 280 -46 280 4 0 26 -69 48 -153z
m-1204 -161 c72 -8 132 -17 138 -21 4 -2 21 -7 39 -10 100 -17 312 -108 440
-188 59 -37 197 -136 276 -198 62 -50 222 -219 265 -280 47 -68 32 -63 -35 10
-76 84 -203 206 -271 261 -220 178 -424 290 -643 351 -42 12 -87 23 -101 25
-14 1 -45 6 -70 9 -131 20 -300 7 -460 -35 -53 -13 -170 -55 -220 -78 -19 -9
-37 -17 -40 -17 -7 -1 -170 -84 -264 -134 -43 -24 -75 -38 -71 -32 8 15 121
91 134 91 5 0 11 4 13 8 6 15 169 101 267 141 97 40 182 66 251 77 19 3 38 8
41 10 4 2 44 7 90 10 46 4 85 7 86 8 2 2 94 -4 135 -8z m-42 -160 c102 -6 287
-39 323 -57 9 -6 17 -7 17 -5 0 9 177 -58 264 -99 288 -135 549 -368 680 -606
42 -76 47 -98 11 -48 -13 19 -28 39 -32 44 -5 6 -24 30 -43 55 -19 25 -39 50
-45 57 -5 6 -21 26 -35 44 -29 38 -170 182 -215 219 -46 37 -122 90 -131 90
-4 0 -15 6 -23 14 -9 7 -43 28 -76 46 -33 17 -66 37 -72 42 -7 6 -13 8 -13 5
0 -3 -29 8 -65 24 -85 38 -198 75 -310 100 -88 21 -114 25 -205 34 -25 2 -47
5 -50 5 -32 9 -284 -2 -350 -15 -237 -47 -312 -40 -114 10 116 30 129 32 254
41 52 3 97 8 98 9 2 2 9 2 15 0 7 -2 59 -6 117 -9z m120 -100 c36 -4 76 -10
90 -15 14 -5 45 -14 70 -21 90 -24 297 -103 382 -147 196 -100 358 -232 490
-398 67 -85 120 -160 142 -203 33 -64 -4 -29 -87 81 -92 121 -178 214 -272
292 -33 28 -61 53 -63 58 -2 4 -7 7 -11 7 -5 0 -45 25 -90 55 -180 121 -459
226 -668 253 -65 8 -429 8 -483 -1 -19 -2 -62 -8 -95 -12 -33 -4 -69 -9 -80
-11 -47 -9 -135 -16 -135 -10 0 5 80 31 131 42 33 7 117 22 159 29 19 3 36 7
37 9 6 5 417 -2 483 -8z m650 -438 c0 -5 -7 -8 -15 -8 -15 0 -20 21 -8 33 7 7
23 -11 23 -25z m220 -102 c-13 -13 -35 7 -25 24 5 8 11 8 21 -1 10 -8 12 -15
4 -23z"/>
<path d="M3415 2626 c-16 -12 -17 -16 -6 -30 27 -33 57 -15 37 22 -11 20 -14
21 -31 8z"/>
<path d="M5266 3951 c-3 -4 9 -32 27 -62 32 -53 86 -99 140 -118 l28 -10 -5
47 c-6 53 -24 72 -117 122 -62 33 -65 34 -73 21z"/>
<path d="M6437 3930 c-11 -10 -66 -42 -123 -71 -78 -40 -106 -59 -110 -76 -8
-30 14 -83 33 -83 24 0 74 31 140 88 72 62 105 109 96 140 -6 26 -12 27 -36 2z"/>
<path d="M5513 3819 c-14 -14 -1 -64 23 -90 21 -23 64 -38 88 -29 38 13 24 84
-21 108 -33 17 -78 23 -90 11z"/>
<path d="M6333 3705 c-123 -82 -126 -87 -122 -186 3 -67 15 -80 60 -70 94 22
137 58 163 133 18 55 33 198 20 198 -5 -1 -59 -34 -121 -75z"/>
<path d="M5690 3732 c0 -46 8 -58 45 -73 47 -19 301 -22 360 -5 53 17 63 26
59 59 -1 12 -3 29 -3 37 -1 13 -34 15 -231 17 l-230 1 0 -36z"/>
<path d="M5370 3717 c0 -24 24 -107 42 -148 15 -34 45 -54 62 -40 14 11 20 89
11 130 -6 27 -47 59 -92 73 -19 5 -23 2 -23 -15z"/>
<path d="M5552 3649 c-21 -8 -23 -15 -21 -61 3 -59 14 -99 32 -110 16 -10 67
-10 68 0 0 4 2 21 4 37 2 17 6 41 8 55 9 46 -49 95 -91 79z"/>
<path d="M5692 3591 c-8 -20 -9 -138 -1 -146 6 -6 25 -11 84 -22 59 -12 364
-8 377 5 6 6 14 49 16 95 l4 84 -237 1 c-210 0 -237 -2 -243 -17z"/>
<path d="M5337 3513 c-7 -13 13 -73 24 -73 14 0 6 73 -8 77 -6 2 -13 0 -16 -4z"/>
<path d="M5427 3468 c-8 -24 3 -142 14 -149 19 -12 37 0 42 29 7 38 0 102 -14
118 -14 17 -35 18 -42 2z"/>
<path d="M6301 3419 c-30 -10 -63 -26 -73 -36 -16 -14 -34 -76 -31 -110 0 -7
1 -20 2 -28 1 -20 34 -19 77 1 51 25 133 196 92 193 -7 0 -37 -9 -67 -20z"/>
<path d="M5542 3418 c-16 -16 -15 -119 2 -140 32 -43 66 -12 72 66 3 48 1 57
-18 70 -27 19 -40 20 -56 4z"/>
<path d="M3955 3397 c-61 -18 -103 -20 -312 -21 -134 -1 -243 -2 -243 -4 0 -6
25 -28 90 -77 83 -62 412 -326 425 -341 6 -6 33 -28 60 -50 28 -21 52 -42 55
-45 3 -3 41 -32 85 -65 76 -55 230 -142 285 -158 14 -5 30 -10 35 -11 16 -6
58 -16 92 -22 24 -4 34 -1 38 9 13 33 -100 283 -196 435 -104 166 -275 362
-319 367 -14 1 -56 -7 -95 -17z m163 -300 c2 -18 -2 -29 -13 -33 -21 -8 -34 5
-41 40 -4 25 -2 27 23 24 22 -2 29 -9 31 -31z"/>
<path d="M5675 3369 c-4 -10 -8 -29 -11 -41 -2 -13 -6 -33 -8 -46 -6 -26 24
-62 52 -63 9 0 26 -2 37 -5 44 -9 322 -11 353 -2 38 10 51 37 55 111 l2 50
-185 3 c-102 2 -208 5 -237 8 -45 3 -53 1 -58 -15z"/>
<path d="M4707 3256 c-5 -13 -3 -57 8 -131 1 -11 3 -26 4 -32 2 -22 30 -14 47
12 24 36 12 104 -25 139 -23 22 -29 24 -34 12z"/>
<path d="M5417 3243 c-15 -26 -28 -258 -16 -290 6 -15 8 -14 18 11 28 71 55
239 43 274 -4 13 -38 17 -45 5z"/>
<path d="M4605 3218 c-16 -15 -27 -37 -30 -61 -4 -33 -1 -43 24 -68 27 -27 60
-37 73 -23 12 11 -4 40 -33 56 -36 21 -36 32 -4 62 16 15 23 30 19 40 -8 21
-18 20 -49 -6z"/>
<path d="M5526 3197 c-11 -18 -28 -88 -27 -112 0 -2 -5 -19 -10 -37 -5 -18
-11 -44 -14 -58 -3 -14 -7 -35 -9 -47 -7 -36 -47 -175 -63 -223 -16 -47 -25
-129 -16 -144 8 -12 26 34 89 223 64 191 112 369 107 392 -6 27 -42 30 -57 6z"/>
<path d="M6209 3183 c-25 -6 -130 -246 -114 -261 7 -8 35 24 75 88 19 30 37
57 40 60 14 14 51 92 48 102 -4 12 -24 17 -49 11z"/>
<path d="M3698 3053 c11 -15 76 -82 143 -147 399 -384 531 -519 724 -741 14
-16 45 -55 68 -85 23 -30 49 -62 58 -70 8 -8 24 -27 33 -42 10 -16 25 -28 32
-28 17 0 17 1 -1 75 -9 33 -18 74 -21 90 -3 17 -10 38 -15 48 -5 9 -7 17 -5
17 3 0 1 11 -4 25 -5 14 -12 37 -14 50 -13 69 -95 311 -96 281 0 -5 -6 -4 -12
2 -10 8 -69 28 -108 37 -83 18 -292 117 -339 159 -10 9 -21 16 -25 16 -4 0
-12 5 -19 10 -7 6 -30 24 -52 41 -51 39 -105 84 -219 182 -50 43 -104 85 -120
94 l-29 15 21 -29z"/>
</g>
</svg>
