
<svg viewBox="0 0 512 653" xmlns="http://www.w3.org/2000/svg" xml:space="preserve" style="fill-rule:evenodd;clip-rule:evenodd;stroke-linejoin:round;stroke-miterlimit:2">
    <defs>
      <linearGradient id="orangeGradient" x1="0%" y1="0%" x2="100%" y2="0%">
        <stop offset="0%" style="stop-color:#FFA500;" />
        <stop offset="50%" style="stop-color:#FF7F00;" />
        <stop offset="100%" style="stop-color:#FF4500;" />
      </linearGradient>
      
      <style>
        /* Define keyframes for the gradient animation */
        @keyframes gradientShift {
          0% {
            stop-color: #FFA500;
          }
          50% {
            stop-color: #FF7F00;
          }
          100% {
            stop-color: #FF4500;
          }
        }
  
 
        #orangeGradient > stop:nth-child(1) {
          animation: gradientShift 3s infinite alternate;
        }
        #orangeGradient > stop:nth-child(2) {
          animation: gradientShift 3s infinite alternate;
        }
        #orangeGradient > stop:nth-child(3) {
          animation: gradientShift 3s infinite alternate;
        }
      </style>
    </defs>
  
    <!-- Use the animated gradient on your paths -->
    <path fill="url(#orangeGradient)" d="M2150 6495c-218-28-391-65-562-122 ... " transform="matrix(.1 0 0 -.1 0 653)"/>
    <!-- Continue with other paths, applying the same gradient fill as needed -->

    <path d="M2150 6495c-218-28-391-65-562-122-75-24-108-40-108-51 0-35 182-230 310-331 47-38 121-93 166-124 89-62 429-255 569-322 50-24 170-82 269-129l178-86 80 75c95 89 173 130 289 151 151 28 301 4 431-69 65-37 159.83-122.63 198-157 24.32-21.9 29-34 39-40 23-12 71 3 71 22 0 23-146 155-219 198-38 23-104 56-146 75-92 40-100 46-43 34 116-25 329-161 415-265 35-44 38-45 87-42 37 2 52 7 54 19 4 21-108 141-182 194-92 65-219 122-318 143-48 10-91 22-95 26-4 5 27 6 70 2 178-14 380-133 530-311 111-132 163-248 192-430 32-194 3-412-75-564l-22-44 45-96c84-178 121-343 122-541 0-122-4-164-27-265-15-66-32-167-38-225-26-244-103-423-245-570-35-36-66-76-70-90-20-66-147-301-205-378-88-118-255-260-348-298-43-18-39-14 47 55 83 66 151 146 196 233 42 80 77 176 69 190-3 5-28 6-57 3-29-4-97-1-152 5-55 7-109 13-120 14-16 1-24-12-43-74-48-156-75-240-127-390s-99-352-112-475c-3-33-3-57 1-53 4 3 28 51 52 105 53 118 97 184 172 258 64 64 168 120 251 135 86 16 254 12 416-11 177-24 309-28 386-11 75 17 156 67 194 120 27 40 30 51 29 120 0 66-5 89-38 162-66 151-60 226 25 287 84 60 91 101 29 163-22 22-40 43-40 48 0 4 21 18 46 31 92 49 107 102 48 173-48 56-64 96-64 155 0 69 28 109 98 140 123 55 145 67 178 99 43 44 60 99 45 145-6 19-63 95-127 169-182 212-332 408-375 490-24 44-24 48-21 292 3 265-5 377-44 574-59 301-157 507-354 744-317 380-739 599-1360 706-134 23-508 28-660 9Zm148-192c-2-10-10-18-18-18s-16 8-18 18c-2 12 3 17 18 17s20-5 18-17Zm734-25c-15-15-26-4-18 18 5 13 9 15 18 6s9-15 0-24Zm378-58c0-5-2-10-4-10-3 0-8 5-11 10-3 6-1 10 4 10 6 0 11-4 11-10Zm-1570-13c0-19-10-27-26-20-21 8-17 33 6 33 11 0 20-6 20-13Zm957-41c-4-9-13-13-22-10-18 7-20 31-2 37 17 6 31-9 24-27Zm402 5c8-14 7-22-4-31-19-16-45-6-45 18 0 36 33 45 49 13Zm-722-100c16-20 44-42 61-50 38-17 40-27 8-35-35-9-95-80-108-131-11-42-28-52-28-18 0 59-85 153-137 153-33 0-28 16 6 23 43 9 87 52 117 114l26 57 13-38c8-21 27-55 42-75Zm1216-35c93-31 207-87 190-93-6-2-26 3-44 12-147 76-398 107-558 70-89-21-169-69-187-111-17-40-47-63-95-70-30-5-41-14-67-58-28-47-82-199-82-231 0-8-5-17-12-21-8-5-10 11-5 62 5 55 17 90 56 169s48 107 44 132c-9 53 4 82 43 101 35 16 37 16 75-6l39-22 53 30c95 53 183 71 337 67 114-3 147-8 213-31Zm-1723-21c0-8-4-15-10-15-5 0-10 7-10 15s5 15 10 15c6 0 10-7 10-15Zm1815-115c87-28 169-68 245-123 84-60 74-66-13-9-40 26-111 62-158 79-297 111-564 48-708-168-48-71-56-51-11 27 54 95 201 193 320 214 87 15 245 5 325-20Zm-27-106c188-38 419-197 489-339 9-18-19 6-72 63-48 51-114 111-146 133-109 73-237 118-365 126-115 7-202-17-300-82-37-25-69-43-72-40-9 9 70 75 119 101 107 54 212 66 347 38Zm-1098-214c0-5-4-10-10-10-5 0-10 5-10 10 0 6 5 10 10 10 6 0 10-4 10-10Zm1918-1613c2-12-3-17-17-17-12 0-21 6-21 13 0 31 32 34 38 4Zm109-283c-9-9-28 6-21 18 4 6 10 6 17-1 6-6 8-13 4-17Zm103-26c26-28 26-30-12-52-29-18-32-18-43-2-7 9-21 16-31 16s-26 5-34 10c-12 8-9 10 11 10 14 0 34 9 44 20 23 26 39 25 65-2Zm-91-234c-15-18-28-18-36 2s17 36 34 22c10-8 10-14 2-24Zm-119-155c0-5-4-9-10-9-5 0-10 7-10 16 0 8 5 12 10 9 6-3 10-10 10-16Zm-242-722c4-20-25-34-40-19s-1 44 19 40c10-2 19-11 21-21Zm72-215c0-9.36 10.75-57.64 47.15-80.15 33.58-20.77 93.01-16.17 93.46-17.86 1.05-3.97-48.58 5.83-87.29-20.78-33.75-23.2-38.13-41.28-49.32-68.21-9.44-22.71-16.06-95.55-17.82-93.38-.54.67 2.34 61.47-9.7 94.11-17.1 46.34-51.86 70.32-62.25 80.97-17.84 10.9-58.48 8.02-58.48 10.18 0 3 41.48 1.66 54.01 7.4 33.33 13.15 59.7 39.45 73.11 71.69 15.87 38.13 9.14 84.08 12.25 83.15 3.14-.93 4.88-56.53 4.88-67.12Zm-730-155c0-8-3-17-7-20-9-9-34 13-27 24 8 14 34 11 34-4Zm518-64c-3-31-34-44-44-19-9 24 3 46 26 46 17 0 21-5 18-27Z" style="fill-rule:nonzero" transform="matrix(.1 0 0 -.1 0 653)"/>
    <path d="M1358 6278c-30-13-48-27-48-37 0-18 93-111 200-203 109-93 260-201 411-294 140-85 964-504 994-504 15 0 35 30 35 53 0 14-185 110-399 209-121 56-440 231-555 305-206 134-344 248-472 395-47 54-94 98-103 97-9 0-37-10-63-21Z" style="fill-rule:nonzero" transform="matrix(.1 0 0 -.1 0 653)"/>
    <path d="M1195 6202c-27-15-51-34-53-42-1-8 29-46 67-84l70-70 34 19c30 16 39 17 66 5 39-16 65-61 56-100-6-27-1-32 82-88 164-110 418-246 733-392 259-120 406-191 512-251 58-32 113-59 122-59 18 0 32 42 20 61-4 6-175 95-381 196-388 190-560 284-748 409-138 91-356 265-446 355-37 38-72 69-76 69s-30-13-58-28Z" style="fill-rule:nonzero" transform="matrix(.1 0 0 -.1 0 653)"/>
    <path d="M1033 6098c-24-17-43-37-43-44s12-26 26-43c41-50 223-202 299-252 62-40 327-167 602-288 50-22 119-54 152-70 33-17 66-31 73-31 40 0-199 186-353 274-140 79-275 163-326 202-37 28-48 31-92 26-43-4-53-1-75 21-16 16-26 37-26 56 0 29-41 76-136 155-40 33-49 32-101-6Z" style="fill-rule:nonzero" transform="matrix(.1 0 0 -.1 0 653)"/>
    <path d="M521 5635c-47-57-69-91-64-100 12-20 96-85 111-85 8 0 12 19 12 63 1 34 7 91 15 127 7 36 10 69 6 73-5 5-41-30-80-78Z" style="fill-rule:nonzero" transform="matrix(.1 0 0 -.1 .745 652.71)"/>
    <path d="M1540 5595c16-19 125-91 227-148 92-53 203-100 383-164 172-61 168-60 151-39-20 24-160 98-304 160-69 30-199 88-290 130-90 42-168 76-172 76s-2-7 5-15ZM3353 5530c-82-15-158-48-222-96-56-42-111-102-111-122 0-6 66-47 148-93 81-45 198-115 260-156 62-40 118-73 125-73s68 38 135 85c68 47 161 108 208 137 46 28 84 55 84 60 0 17-145 153-191 180-118 69-303 102-436 78Zm102-160c0-7-6-15-12-17-8-3-13 4-13 17s5 20 13 18c6-3 12-11 12-18Zm235-69c0-27-19-36-37-18s-9 37 18 37c12 0 19-7 19-19Zm-232-144c2-12-3-17-17-17-12 0-21 6-21 13 0 31 32 34 38 4Z" style="fill-rule:nonzero" transform="matrix(.1 0 0 -.1 0 653)"/>
    <path d="M402 5475c-27-59-7-169 68-377 35-97 57-134 143-236 57-68 60-70 129-86 39-9 73-14 76-12 2 3-21 45-53 95-95 150-145 282-169 446l-11 79-69 58c-38 32-77 58-86 58s-22-11-28-25Z" style="fill-rule:nonzero" transform="matrix(.1 0 0 -.1 -.055 653.737)"/>
    <path d="M2205 5380c10-11 23-20 28-20 6 0 2 9-8 20s-23 20-28 20c-6 0-2-9 8-20ZM2280 5385c33-40 146-112 283-181 83-41 182-96 220-120 74-48 97-50 97-10 0 21-15 34-92 80-138 81-480 246-509 246-8 0-7-5 1-15ZM301 5299c-23-35-39-71-37-79 22-77 120-348 129-356 18-17 110-35 121-23 11 10-1 49-59 199-18 47-48 135-66 195-18 61-36 114-40 119-4 4-26-20-48-55ZM630 5303c0-90 91-327 168-439s86-119 210-148c116-27 142-31 142-20 0 4-31 43-68 88-94 111-164 217-224 341-50 103-51 105-127 155-43 27-83 50-89 50-7 0-12-12-12-27ZM1875 5291c-87-24-164-76-225-152-57-72-54-87 28-141 95-64 208-128 224-128 11 0 13 15 10 65-6 88 16 142 75 195 139 122 355 70 437-105 45-95 35-185-32-274-18-24-21-35-12-41 27-17 298-43 318-31 42 26-99 308-194 390-163 139-498 258-629 222ZM4160 5269c0-6 18-41 40-77 53-90 78-168 91-282 10-86 6-227-7-272-14-49-21-3-20 135 1 130-2 164-22 237-40 146-116 265-161 253-13-3-25-12-28-19-2-7 16-55 42-106 67-135 89-281 65-424-23-132-25-118 28-171 26-26 65-68 85-93 36-44 38-44 52-25 9 11 28 56 42 100 26 75 27 91 28 265 0 197-15 286-66 395-35 75-60 95-119 95-29 0-50-5-50-11ZM2975 5246c-22-33-13-46 58-86 34-19 138-86 230-147 93-62 173-113 177-113 14 0 70 51 70 63 0 23-465 307-502 307-10 0-24-11-33-24Z" style="fill-rule:nonzero" transform="matrix(.1 0 0 -.1 0 653)"/>
    <path d="M3874 5161c-159-99-269-180-269-198 0-25 419-326 471-339 34-9 41 4 50 85 11 103-2 268-25 336-27 77-84 179-102 183-8 1-64-29-125-67Zm-48-240c-10-16-36-13-43 5-8 22 18 37 36 20 7-8 10-19 7-25Zm212-54c3-22-1-27-18-27-23 0-35 22-26 46 10 25 41 12 44-19ZM2430 5205c0-4 32-41 71-83 118-126 193-253 230-387l16-60 58-3c32-2 62 1 66 5 5 5 4 37-2 71l-11 62-174 169c-170 165-254 240-254 226ZM2580 5128c30-28 78-66 107-84 29-19 77-49 107-68 57-37 66-37 66 1 0 18-18 35-82 77-90 58-220 126-240 126-7-1 12-24 42-52ZM202 5118c-60-151-64-184-26-198 47-18 155-43 160-37 6 6-46 172-77 245-10 23-22 42-27 42-6 0-19-24-30-52ZM2105 5161c-69-17-134-69-154-124-26-68-5-184 37-206 68-36 71-36 128 26 57 61 74 55 29-11-14-20-25-43-25-51 0-16 79-42 155-51 61-7 92 13 124 79 84 173-101 385-294 338Zm49-136c55-56-4-132-73-94-34 19-38 55-10 85 26 27 60 31 83 9Zm186-155c0-11-7-20-15-20-15 0-21 21-8 33 12 13 23 7 23-13Z" style="fill-rule:nonzero" transform="matrix(.1 0 0 -.1 0 653)"/>
    <path d="M2095 5006c-22-16-15-50 11-54 25-4 47 19 38 41-8 22-29 28-49 13ZM2932 5141c-14-38-9-43 118-129 58-39 140-100 184-136 43-37 83-66 90-66 6 0 27 13 46 29 28 23 32 32 22 43-32 39-410 288-437 288-7 0-18-13-23-29ZM890 5128c0-18 92-169 147-242 75-98 174-206 204-221 15-8 76-26 136-40 59-14 136-35 171-46 35-12 65-19 68-16 2 2-11 37-31 78-19 40-37 89-41 109-10 67-19 76-96 105-217 81-386 166-496 251-48 36-62 41-62 22Zm410-293c31-38-27-96-65-65-18 15-20 51-3 68s53 15 68-3ZM2917 5053c-4-3-7-16-7-28 0-17 25-41 103-96 56-40 128-95 161-121 59-50 98-60 104-27 4 20-126 130-254 217-95 65-97 66-107 55ZM1574 4983c-4-15-8-55-8-87l-1-60 70-39c76-41 92-53 83-62-3-4-34 8-68 25-35 18-66 28-71 23-21-21 43-165 104-235 29-34 47-42 223-97 105-33 247-84 315-113 92-38 137-52 174-52 55-1 46-5 330 151 171 93 180 100 183 130 5 49-25 73-93 73-51 0-56-2-66-27l-11-28-13 26c-13 24-22 27-82 33-37 4-126 13-198 21-71 8-177 19-235 25-58 5-119 13-137 16-28 5-34 3-44-20-11-23-9-29 11-51 25-26 29-67 10-90-18-22-76-19-101 6-27 27-20 55 32 127l39 56-32 33c-17 18-87 65-155 104s-146 86-173 105c-60 41-77 42-86 7Zm914-512c4-29-54.79-73.16-100-50-41 21-46.06 73.74-16 97 55.93 43.28 108.14 10 116-47ZM2897 4953c-18-17-2-45 46-79 28-21 91-66 138-101 86-63 111-73 125-51 10 15-84 100-198 178-86 60-99 66-111 53ZM2780 4932c0-17 60-66 69-56 12 11-5 36-36 52-26 14-33 15-33 4ZM3513 4904c-18-14-33-29-33-34s30-32 66-59l66-51 82 4c44 2 83 4 85 5 17 5-195 161-220 161-8 0-29-12-46-26ZM122 4873c-5-10-20-62-32-117-19-82-20-100-9-111 32-31 314-104 331-87 10 10-26 199-47 249-11 25-22 34-57 43-24 6-66 18-95 26-66 18-80 18-91-3Zm153-148c0-13-8-21-22-23-17-3-23 2-23 16 0 10 3 22 7 26 13 13 38 1 38-19ZM2890 4841c0-11 33-46 83-88 115-97 133-108 152-93 24 20 18 34-26 69-68 55-182 131-196 131-7 0-13-9-13-19ZM570 4842c0-12 19-26 26-19 2 2-2 10-11 17-9 8-15 8-15 2ZM3387 4809l-38-32 27-28c15-16 35-31 44-34 20-6 123 28 127 42 4 12-90 83-110 83-7 0-30-14-50-31ZM408 4815c-3-3 0-30 8-58 7-29 19-87 25-130 8-53 16-80 28-86 23-12 96-20 109-12 11 6-6 140-27 218-10 37-16 44-49 52-75 20-88 22-94 16ZM586 4771c-4-5 0-34 8-64s17-80 21-111 14-63 21-71c9-8 51-15 121-19 60-3 154-11 211-17 100-11 133-7 102 12-8 5-75 45-148 89s-165 102-205 129c-73 50-121 69-131 52ZM2900 4753c0-5 5-25 11-45 10-37 12-38 54-38 25 0 45 4 45 8s-20 24-44 45c-43 35-66 46-66 30ZM3268 4719c-44-36-46-48-13-72 25-18 26-17 75 10 28 15 50 33 50 38 0 9-60 55-71 55-2-1-21-14-41-31ZM780 4724c1-12 25-29 140-97 99-58 201-106 150-70-70 50-168 121-195 141-32 23-95 41-95 26ZM3670 4723c0-5 15-23 33-40 28-27 42-31 107-37 41-4 93-9 115-13l40-6-23 26c-36 39-117 69-199 75-42 3-73 1-73-5ZM3522 4703c-49-17-52-35-9-66 25-19 32-20 84-9 78 16 84 26 43 62-39 33-57 35-118 13ZM966 4692c-8-13 25-40 169-137 72-48 137-93 145-100 29-25 230-84 230-68 0 4-37 36-83 70-45 33-112 88-148 122-65 59-67 60-178 85-62 14-116 28-121 31s-11 1-14-3ZM3368 4638c-21-12-38-27-38-34 0-18 60-65 73-57 7 4 29 17 51 31l38 24-28 29c-33 35-47 36-96 7ZM3158 4639c-24-14-22-35 4-53 28-20 49-20 74-1 19 15 18 16-9 40-31 27-43 30-69 14ZM2940 4607c0-48 28-53 83-15 40 29 33 38-28 38-51 0-55-2-55-23Z" style="fill-rule:nonzero" transform="matrix(.1 0 0 -.1 0 653)"/>
    <path d="M1974 4606c-10-26 4-48 28-44 17 2 23 10 23 28s-6 26-23 28c-13 2-25-3-28-12Z" style="fill-rule:nonzero" transform="matrix(.1 0 0 -.1 0 653)"/>
    <path d="M1973.35 4598.42c-2.13-5.52 1.75-14.88 9.22-23.71 13.32-13.41 29.6-8.2 24.9-9.03-2.34-.4-2.3 6.82-6.75 16.24-4.53 9.58-17.96 11.4-5.64 17.34 7.65 1.86 8.79 1.42 8.5-3.9-.23-4.27-6.19-9.22-6.07-12.94.23-7.56 5.71-13.44 8.2-16 3-3.1 39.05 1.72 39.47 15.19 0 18-23.53 33.13-40.53 35.13-13 2-28.3-9.32-31.3-18.32Z" style="fill-rule:nonzero" transform="matrix(.18786 0 0 -.18786 -133.813 1067.768)"/>
    <path d="M3652 4608c-65-12-76-32-38-65 24-20 37-23 117-23 49 0 89 4 89 8 0 15-95 94-110 91-3-1-29-6-58-11ZM3806 4612c-3-6 16-31 42-56 49-47 170-136 185-136 8 0 27 41 41 87 6 19 0 27-41 53-26 17-64 35-83 39-64 17-138 23-144 13ZM61 4596c-25-30-43-253-37-451 14-476 122-793 345-1016 94-94 198-148 365-187 96-23 133-26 271-26 148 0 166 2 239 27 105 37 160 70 226 137 88 89 150 245 150 379 0 262-172 516-415 612-53 21-76 23-205 23-124 0-154-3-204-22-98-36-109-47-102-95 9-57 14-60 46-37 16 11 55 33 87 48 51 24 70 27 158 27 114 0 161-14 262-77 167-105 265-282 265-478 0-320-218-527-531-505-95 7-228 43-306 82-156 79-301 225-379 380-59 117-81 217-81 373 0 120 3 144 28 221 28 89 81 187 123 229 20 20 14 1-30-90-76-157-91-217-90-365 3-290 128-518 374-681 186-123 456-157 620-77 68 33 158 122 189 186 70 145 68 346-4 486-140 270-484 377-671 208-35-32-46-48-41-61 6-15 12-13 49 18 111 95 261 110 400 40 102-52 195-164 229-276 31-103 25-229-17-318-37-79-89.67-129.5-162-177-60.56-39.77-139.83-54.38-212-48-84.833 7.5-167 23-297 93-162 88-313 313-344 513-32 208 39 403 192 525 78 62 77 59 55 194l-12 74-55 11c-70 14-79 11-79-31 0-24-5-34-15-34s-15 10-15 28c0 45-20 59-105 78-44 9-118 30-164 46-100 33-86 31-100 14Zm132-130c6-15-11-36-29-36-17 0-24 26-11 39 15 15 34 14 40-3Zm133-71c19-19 23-31 18-48-10-34-24-47-52-47-56 0-81 61-42 100 27 27 46 25 76-5Zm154-15c0-5-4-10-10-10-5 0-10 5-10 10 0 6 5 10 10 10 6 0 10-4 10-10Zm60-50c0-5-4-10-10-10-5 0-10 5-10 10 0 6 5 10 10 10 6 0 10-4 10-10Zm-122-903c2-12-3-17-17-17-12 0-21 6-21 13 0 31 32 34 38 4ZM1331 4574c36-40 207-165 282-207 100-57 347-134 347-109 0 5-34 35-76 67s-106 82-141 112c-39 33-93 67-136 85-80 33-239 78-276 78h-24l24-26ZM3028 4559c-37-19-58-36-58-47 0-49 130-292 156-292 19 0 165 200 156 214-15 26-167 156-182 155-8 0-41-13-72-30ZM3258 4559c-25-14-22-31 10-62 31-29 51-34 70-15 18 18 14 42-11 66s-43 27-69 11ZM3478 4550c-50-27-52-33-18-65l30-29 50 24c27 13 50 29 50 36 0 13-51 54-67 54-4-1-25-10-45-20ZM4145 4520c10-11 20-18 23-15 7 6-18 35-31 35-5 0-2-9 8-20ZM2788 4441c-58-31-115-63-125-72-19-17-40-29-145-79-38-18-68-37-68-41 0-5 37-27 83-50 45-23 119-66 165-95 45-30 86-54 91-54 12 0 190 79 244 107 26 15 47 32 47 40s-20 48-45 91c-25 42-57 107-71 144-21 56-30 68-47 67-12-1-70-27-129-58Zm122-135c0-3-4-8-10-11-5-3-10-1-10 4 0 6 5 11 10 11 6 0 10-2 10-4ZM3700 4477c0-7 13-26 29-41 25-24 41-30 113-37 46-4 100-11 121-14 24-4 37-3 37 4 0 18-92 79-137 90-61 16-163 14-163-2ZM4090 4450c-27-54-25-75 10-100 16-12 53-41 82-66 28-24 57-44 64-44 6 0 18 14 27 32 13 28 14 36 1 59-16 32-139 159-154 159-5 0-19-18-30-40Z" style="fill-rule:nonzero" transform="matrix(.1 0 0 -.1 0 653)"/>
    <path d="M637 4473c-2-5 1-46 7-93 13-97 7-94 121-70 76 15 209 7 290-18 131-41 307-146 462-275 51-42 95-77 98-77 20 0-55 125-126 210-53 63-196 186-275 237-77 49-111 57-332 78-181 17-239 19-245 8ZM3358 4455c-10-22-9-29 10-47 19-20 24-21 48-8 37 20 41 40 15 62-32 25-59 23-73-7ZM3573 4460c-48-21-52-32-23-53 15-11 32-12 80-4 33 5 60 15 60 21 0 10-59 56-71 56-2 0-23-9-46-20ZM1802 4439c2-8 57-54 123-103l118-90 121 3c67 1 125 6 130 11 20 19-163 91-478 186-12 4-17 2-14-7ZM3457 4389c-39-30-33-41 21-37 52 3 62 21 26 44-18 13-24 12-47-7ZM3270 4349c-37-47-48-69-35-69 19 0 125 63 125 74 0 13-31 46-43 46-4 0-25-23-47-51ZM1390 4371c0-10 116-104 258-209 177-133 507-342 538-342 29 0 144 43 144 54 0 16-110 74-270 141-143 61-372 173-405 199-41 31 9 14 154-54 82-38 194-88 248-110 54-23 149-68 212-101 112-59 153-69 158-39 4 22-358 254-450 290-41 16-141 47-223 70s-192 55-244 72c-52 16-101 31-107 33-7 3-13 0-13-4Zm780-461c0-5-5-10-11-10-5 0-7 5-4 10 3 6 8 10 11 10 2 0 4-4 4-10ZM3638 4373c-29-7-20-26 28-62 43-31 49-33 100-26 30 3 54 10 54 14 0 10-40 46-65 58-25 13-94 22-117 16ZM3820 4363c0-15 85-93 101-93 20 0 59 41 59 62 0 10-12 18-32 21-87 15-128 19-128 10ZM4019 4318c-11-13-28-34-37-47-16-23-15-25 18-50 19-14 63-50 99-80l64-54 28 34c46 55 46 66-2 116-40 40-126 103-142 103-3 0-16-10-28-22ZM1457 4227c99-102 154-180 209-293 53-111 212-253 374-334 69-35 504-200 527-200 7 0 13 3 13 6 0 15-66 97-131 163-94 95-181 160-354 261-180 107-342 215-532 356-83 62-162 118-175 125-12 6 19-31 69-84ZM3496 4311c-7-10 65-71 83-71 7 0 26 7 44 16l31 17-28 23c-20 18-39 24-76 24-27 0-51-4-54-9ZM3271 4254c-60-30-112-61-114-68-8-19 87-120 154-165 62-42 98-49 159-32 23 6 26 13 32 79 4 40 15 86 23 103 9 17 14 37 11 44-9 24-107 95-132 95-13 0-73-25-133-56Z" style="fill-rule:nonzero" transform="matrix(.1 0 0 -.1 0 653)"/>
    <path d="M751 4275c-85-19-95-30-84-86 10-50 9-50 108-15 52 19 89 25 145 25 91 0 145-17 60-18-124-2-305-62-298-98 5-23 18-21 98 14 61 26 73 28 210 28 132 0 151-3 212-26 101-39 173-86 252-165 250-250 262-648 26-885-85-86-144-114-323-153-42-10-22-26 31-26 270 1 501 208 551 494 16 86 13 214-5 293-19 85-38 116-65 108-42-14-95 49-68 81 11 13 14 11 23-18 13-40 40-44 44-5 2 15-1 27-6 27-6 0-49 37-97 83-289 274-578 396-814 342ZM4290 4226c-10-31-8-38 28-94 22-34 52-90 67-126s32-66 37-66c22 0-24 186-68 273-29 56-48 60-64 13ZM3770 4242c0-12 62-62 77-62 18 0 47 40 36 51-14 14-113 24-113 11ZM2300 4229c-25-4-82-8-127-8-45-1-84-5-88-10-3-5 22-30 54-56 72-54 315-212 341-220 11-3 58 11 114 35 52 22 99 40 104 40s15 6 21 14c10 12 4 21-36 51-59 43-298 165-321 164-9-1-37-5-62-10Zm-26-45c9-8 16-22 16-29 0-17-27-45-44-45-35 0-49 61-18 79 23 14 28 14 46-5ZM3663 4228c-57-15-54-23 33-94 44-37 46-37 72-22 40 25 39 49-5 84-49 39-61 43-100 32Z" style="fill-rule:nonzero" transform="matrix(.1 0 0 -.1 0 653)"/>
    <path d="M567 4191c-121-96-181-226-181-396 1-156 44-282 147-422 119-160 323-263 499-251 224 16 357 164 346 387-3 74-9 98-40 163-83 176-259 276-421 239-66-15-135-57-172-105-25-33-27-41-19-78 5-23 14-43 19-45 6-1 20 15 33 37 46 82 169 122 257 86 45-19 129-98 149-141 35-74 9-185-57-241-112-95-274-90-386 12-88 78-104 165-65 337 10 45-15 32-39-20-33-74-33-26 1 59 29 74 34 158 9 158-6 0-26-14-44-32-47-45-42-15 7 43 67 80 40 114-31 38-127-137-144-365-40-528 122-190 381-286 559-206 111 50 180 148 190 273 6 72 22 66 22-9 0-113-69-222-182-284-51-29-114.74-46.05-164-50-47.403-3.8-131 20-131 20l-95 47c-195 97-298 251-298 447 0 140 48 247 152 341l51 45-8 53c-8 60-18 64-68 23Zm-4-426c8-18-11-31-25-17-11 11-3 32 12 32 4 0 10-7 13-15Zm706-502c-15-18-34-1-25 22 5 14 9 15 21 5s13-16 4-27ZM3900 4180c-13-18-18-35-13-43 17-27 161-157 175-157 8 0 27 13 42 29 46 48 23 86-109 174-51 35-69 34-95-3ZM3562 4168c-18-22-33-99-27-130 6-27 10-30 39-25 50 8 126 45 126 61 0 15-100 106-117 106-6 0-15-6-21-12ZM3025 4122c-38-20-99-50-135-65l-65-28 34-29c28-24 45-29 110-34 224-17 329-67 508-239 40-39 75-68 78-65 4 4-13 117-30 194-3 14-21 28-54 42-95 39-190 103-274 182-47 44-89 80-93 79-5 0-40-17-79-37ZM4225 4110c-14-22-25-45-25-52s20-41 44-75c36-53 83-149 128-263 9-23 10-23 20-6 15 27 1 155-27 243-24 78-80 179-102 187-8 3-23-11-38-34ZM3812 4104c-41-28-35-37 110-163 32-28 39-30 62-20 48 22 42 39-44 121-45 43-87 78-94 78-6 0-22-7-34-16ZM3700 4030c-19-11-57-27-85-36-64-21-78-34-70-67 5-17 18-29 38-37 44-15 182-24 248-16 93 12 93 17 8 101-42 41-83 75-90 75-8-1-30-9-49-20ZM4122 3987c-18-18-32-38-32-44s20-40 44-76c53-79 81-151 91-232 5-36 21-87 42-128 40-81 50-79 78 13 16 53 17 69 6 126-19 106-81 245-153 347-25 35-37 34-76-6ZM2681 3974c-47-18-92-40-100-49-20-20-11-19 97 4 48 11 100 21 116 23 40 4 43 24 7 42-16 9-31 16-33 15-2 0-41-16-87-35ZM3465 3949c-8-12 14-31 30-26 6 2 10 10 10 18 0 17-31 24-40 8ZM2825 3924c-81-11-206-38-211-45-3-5 22-26 56-46 311-192 481-329 676-547 58-64 90-93 92-83 8 41-104 267-191 387-53 72-207 231-279 286-57 45-88 55-143 48Zm105-144c0-5-4-10-9-10-6 0-13 5-16 10-3 6 1 10 9 10 9 0 16-4 16-10Zm318-278c2-7-3-12-12-12s-16 7-16 16c0 17 22 14 28-4Z" style="fill-rule:nonzero" transform="matrix(.1 0 0 -.1 0 653)"/>
    <path d="M2992 3923c-8-3 36-52 111-126 167-165 257-297 340-499 23-56 48-103 54-105 16-6 48 58 67 134 20 76 21 193 2 238-21 48-187 217-266 270-36 24-92 52-125 63-62 20-161 34-183 25Zm348-213c0-5-5-10-11-10-5 0-7 5-4 10 3 6 8 10 11 10 2 0 4-4 4-10ZM4018 3902c-16-9-28-22-28-29 0-12 166-194 184-202 21-9-6 78-47 148-54 93-72 106-109 83ZM2462 3877c-22-13-22-14-5-29 10-8 68-48 128-88 257-170 468-344 619-509 98-106 132-156 171-250 30-71 35-76 79-95 61-25 67-16 50 77-18 102-26 118-91 184-32 32-102 107-156 166-117 127-250 240-407 346-121 82-340 211-356 211-5-1-19-6-32-13ZM3560 3853c0-4 13-71 28-148 28-136 31-143 92-240 35-55 90-155 123-222 32-68 65-123 72-123s38 19 70 42c60 45 134 135 168 206 19 39 20 48 10 121-15 98-63 222-118 304l-42 62-54-5c-85-7-239-6-296 3-29 5-53 5-53 0Zm400-259c0-1-22.12-11.74-37-21l-18-59-13 58-34 18 33 14 13 54 18-51c15-11 38-12 38-13Z" style="fill-rule:nonzero" transform="matrix(.1 0 0 -.1 0 653)"/>
    <path d="M2311 3826c-36-12-66-27-68-32-2-6 43-39 99-73 337-207 666-459 794-609 40-47 173-142 199-142 12 0 15 6 10 23-38 125-268 371-530 567-160 119-413 290-428 289-7 0-41-11-76-23ZM4440 3788c0-19-4-58-10-86-8-42-6-58 8-89l17-38 3 114c2 69-1 118-8 125s-10-1-10-26ZM869 3767c-87-46-131-171-86-241 59-89 195-112 272-45 70 61 83 165 30 235-58 76-134 94-216 51ZM1762 3698c27-86 29-264 4-368-37-154-130-299-242-379-57-41-196-101-233-101-36 0-33-20 6-36 21-9 135-63 253-120 268-129 341-148 530-141 130 5 203 22 208 49 2 9-45 56-115 115-199 169-257 239-288 347-61 210 120 409 332 366 165-34 286-169 286-320 1-106-57-200-148-241-43-20-140-25-165-9-11 7-4 10 26 10 58 0 138 26 175 57 18 15 42 50 55 78 63 134-1 291-148 364-51 26-73 31-133 31-160 0-255-94-255-252 0-89 28-155 96-232 63-70 325-295 345-296 21 0 88 49 139 102 22 22 55 70 73 107 31 63 32 71 32 186 0 114-2 123-32 188-40 85-133 184-213 226-32 17-112 53-178 80-149 59-254 119-343 194-38 31-73 57-78 57s0-28 11-62Zm473-395c7-5-21-8-64-8-70 0-81-3-114-28-38-29-52-23-18 7 44 40 148 55 196 29Zm104-68c68-78 63-165-13-242-82-81-205-65-273 36-77 113 63 260 186 196 30-15 61-69 61-105 0-79-93-127-154-79-47 37-22 115 36 107 29-4 39-54 13-64-23-9-31 4-17 26 7 12 8 21 2 25-29 18-42-42-14-69 23-24 60-19 83 10 29 37 26 70-8 105-43 43-101 41-147-5-40-40-45-83-14-134 28-46 76-72 132-72 41 0 54 5 88 36 50 45 66 96 49 157-6 23-19 51-28 62-26 29-34 45-23 45 6 0 24-16 41-35Zm-597-297c-7-7-12-8-12-2 0 14 12 26 19 19 2-3-1-11-7-17Zm-127-88c-25-28-117-53-158-44-30 7-29 8 30 20 34 7 75 19 90 27 43 23 60 21 38-3Zm110-20c3-6-1-13-10-16-19-8-30 0-20 15 8 14 22 14 30 1Zm-98-56c-3-3-12-4-19-1-8 3-5 6 6 6 11 1 17-2 13-5Zm283-100c0-8-7-14-15-14-15 0-21 21-9 33 10 9 24-2 24-19Z" style="fill-rule:nonzero" transform="matrix(.1 0 0 -.1 0 653)"/>
    <path d="M690 3632c0-213 281-325 427-171 35 37 53 77 53 115 0 35-17 29-24-8-18-88-107-158-203-158-114 0-205 84-228 213-8 43-25 50-25 9ZM4120 3644c0-6 7-33 16-60s18-56 21-64c8-26 25 17 18 48-6 28-54 95-55 76ZM2524 3553c2-5 33-50 68-101 61-91 65-95 133-123 151-65 324-204 412-334 45-67 114-200 132-257 7-21 19-38 27-38 17 0 18-4-5 61-46 136-167 325-265 417-164 153-539 433-502 375ZM4207 3503c-2-5-11-30-20-58-14-42-14-59-4-109 7-33 17-61 22-63 14-4 68 83 68 110s-42 127-54 127c-4 0-10-3-12-7ZM3616 3448c-3-18-7-58-10-88-4-37-19-82-47-137-22-45-38-87-34-93 13-21 84-50 137-55 66-7 151 13 156 37 6 31-155 343-188 363-5 3-11-9-14-27ZM4346 3428c-24-51-26-62-16-98 6-22 15-40 20-40 30 0 52 123 30 175-7 17-12 12-34-37ZM2490 3378c0-3 14-23 31-44 178-223 147-520-72-687-35-27-66-54-67-58-2-5 33-50 78-100 122-137 206-277 279-466 32-81 43-93 86-93 35 0 38 15 17 73-11 29-23 79-27 112-14 132-15 135-48 149-45 19-68 48-74 93-4 32 0 45 22 71 15 18 36 32 46 32 30 0 32 22 10 98-26 87-27 149-2 182 16 20 21 22 35 11 13-11 16-35 16-121 0-100 2-109 24-131 42-42 66-92 66-136 0-36-5-46-41-76l-40-35 6-63c10-97 22-129 50-129 12 0 28-7 35-15 11-13 9-20-9-38-47-51-19-82 60-63 176 41 316 196 326 361 3 39 1 94-4 124l-8 54-82 46c-228 129-398 321-474 536-18 50-48 131-68 180-32 78-41 92-72 107-36 18-99 34-99 26Zm598-965c-4-22-22-20-26 1-2 10 3 16 13 16s15-7 13-17Zm23-183c21-12 25-50 7-68-21-21-57-14-70 14-11 23-10 29 11 45 27 22 27 22 52 9ZM4108 3295c-37-51-123-136-192-190l-39-31 30-89c35-105 41-107 132-52 91 54 121 88 121 136 0 22-4 41-8 41-5 0-21-14-38-31-30-33-111-89-127-89-5 0 29 38 76 83 48 47 89 96 93 111 3 14 2 57-2 94l-9 67-37-50Z" style="fill-rule:nonzero" transform="matrix(.1 0 0 -.1 0 653)"/>
    <path d="M2680 3300c0-14 104-290 125-331 82-160 292-367 432-425l35-15-7 58c-11 87-51 207-103 306-77 147-220 286-393 381-68 37-89 43-89 26ZM4240 3248c-34-55-40-71-40-121 0-74 11-72 67 13 42 63 54 111 37 154-10 27-22 18-64-46ZM4370 3251c-12-24-13-151-1-151 9 0 13 18 27 123 7 50-6 64-26 28ZM4251 3061l-52-79-20-148c-11-80-18-149-16-151 3-2 22 16 44 41 46 53 89 137 103 203 15 70 17 205 4 210-6 2-35-32-63-76ZM3534 3033c4-27 11-72 15-101 4-30 14-58 22-63 43-26 289-24 316 4 14 13 12 24-12 98-15 46-32 87-38 91-6 3-22 2-36-4-42-17-180-14-225 5-21 10-41 17-44 17-2 0-2-21 2-47Zm270-134c-8-14-34-11-34 4 0 8 3 17 7 20 9 9 34-13 27-24ZM412 3008c72-103 262-265 518-443 231-160 349-343 369-576 10-113-1-244-30-349-48-176-177-392-331-555-51-54-86-96-78-92 8 3 67 29 130 56 220 96 397 131 661 131 250 0 399-25 596-102 112-43 299-136 335-167 13-10 58-47 100-80 137-110 324-316 466-515 121-168 177-237 159-196-129 309-131 319-131 695 0 313 7 398 63 715 11 63 25 158 31 210 12 106 30 383 24 389-1 2-36-31-77-73-78-80-162-129-247-142-23-4-44-13-47-21-3-7 14-82 37-166 51-182 110-423 110-446-1-38-32 46-80 220-75 268-109 382-119 392-5 5-24 7-42 5-40-4-40-3-4-123 15-49 41-161 59-247 20-100 38-163 48-170 9-7 19-26 22-43 4-16 31-79 60-140 45-92 82-193 63-175-2 3-27 49-55 102-84 160-232 383-331 498-312 362-907 907-1156 1060-167 103-389 182-545 195l-65 6 35-17c179-85 246-122 306-167 38-29 99-73 136-99 36-26 82-66 101-89 45-52 106-167 123-233 16-60 19-196 4-196-5 0-10 21-10 47 0 111-69 290-136 353-20 19-35 31-32 25 2-5 23-48 45-95 53-110 75-194 71-278l-3-67-12 60c-42 199-71 271-160 390-133 178-254 253-598 370-187 64-273 100-347 145-26 17-51 30-54 30s5-15 18-32Zm438-245c145-78 231-142 346-257 171-170 267-330 295-492 16-94 6-283-19-354-42-121-147-296-211-354-34-31-24-10 33 72 65 93 107 175 143 279 23 68 27 94 27 203 1 69-3 143-9 165-8 33-10 14-15-115-6-140-10-164-39-250-18-52-46-119-63-150-36-64-109-163-115-156-3 2 21 47 51 100 69 115 100 196 122 312 22 119 15 257-20 389-37 138-75 203-185 318-100 104-211 185-399 291-56 32-105 62-107 67-10 15 78-21 165-68Zm1012-418c38-19 87-62 173-153 141-148 353-361 557-559 139-135 271-295 344-418 60-100 126-255 109-255-3 0-27 45-55 100-105 209-209 347-417 551-132 130-183 172-309 257-123 82-166 117-230 189-114 127-151 161-222 201-69 40-69 56 0 21 67-34 119-78 223-187 97-102 187-177 204-170 9 3-89 115-252 289-40 42-100 94-133 115-104 66-103 65-72 54 15-5 51-21 80-35Zm-132-215c0-5-7-10-15-10s-15 5-15 10c0 6 7 10 15 10s15-4 15-10Zm153-3c18-8 38-21 46-30 19-23 5-21-26 3-14 11-34 20-44 20-11 0-19 5-19 10 0 13 4 13 43-3Zm87-88c0-6-4-7-10-4-5 3-10 11-10 16 0 6 5 7 10 4 6-3 10-11 10-16Zm-75-43c22-16 26-76 6-100-7-8-56-39-109-67-54-29-109-60-124-70-43-31-44-22-2 15 21 19 72 54 112 78 39 23 72 46 72 50 0 5-9 17-20 28s-20 25-20 30c0 14 38 50 53 50 7 0 22-6 32-14Zm280-161c73-19 177-80 225-131 39-41 37-40-73 33-91 60-124 73-223 80-94 7-185-10-284-52-44-19-80-32-80-30 0 3 30 20 68 38 145 73 253 91 367 62Zm953-53c2-7-6-12-17-12-21 0-27 11-14 24 9 9 26 2 31-12Zm-927-48c109-32 317-162 462-288 70-61 181-190 231-269 47-74 118-216 114-228-2-5-29 35-60 89-133 228-292 401-488 531-66 43-155 94-197 112-75 32-83 34-203 34-103-1-136-5-187-23-64-22-137-61-130-69 3-2 50 5 105 17 299 60 517-8 790-249 118-105 252-275 279-356 6-17 22-48 37-69 53-79 24-66-44 20-97 120-275 285-392 361-182 120-313 166-517 185-143 13-147 25-9 27 200 3 452-105 667-284 78-65 107-94 179-180 12-15 26-25 29-21 11 10-66 115-145 198-145 152-305 268-442 320-82 32-90 33-230 32-133-1-153-3-248-33-56-17-144-49-195-71-50-22-96-40-101-40-19 0 60 72 126 116 81 54 216 118 289 138 74 20 212 20 280 0Zm723-99c8-33 36-130 62-215 73-245 71-284-4-70-50 142-78 249-86 326-7 67 3 53 28-41Zm-821-170c202-35 397-135 604-309 92-77 181-175 217-238 12-21-4-9-45 37-290 320-615 495-919 495-193 0-370-57-632-204-38-21-68-35-68-32s33 27 73 54c264 178 514 242 770 197Zm-3-120c380-61 730-298 880-595 28-56 29-57-65 69-98 129-191 224-285 286-285 189-619 263-936 205-60-11-118-20-129-20-63 1 97 47 204 60 110 13 231 11 331-5Zm120-94c247-73 423-172 570-321 93-94 215-270 187-270-3 0-31 37-63 82-183 261-466 440-799 503-108 21-312 19-475-5-155-23-168-24-155-11 6 5 66 21 135 35 113 23 142 25 310 22 172-3 192-6 290-35Zm360-297c0-9-5-14-12-12-18 6-21 28-4 28 9 0 16-7 16-16Zm168-72c2-7-3-12-12-12s-16 7-16 16c0 17 22 14 28-4Z" style="fill-rule:nonzero" transform="matrix(.1 0 0 -.1 0 653)"/>
    <path d="M1852 1967c-10-11-9-17 3-27 24-20 45 4 24 26-14 13-17 13-27 1ZM3240 2965c0-11 33-70 49-89 19-21 91-60 98-52 3 3 2 21-1 40-6 30-16 41-67 71-57 33-79 42-79 30ZM4120 2945c-7-9-51-34-98-56-83-40-84-41-78-72 4-17 10-35 15-40 26-26 191 108 191 156 0 30-11 35-30 12ZM3426 2862c-11-18 11-67 35-79 51-26 78-9 65 41-8 32-86 61-100 38ZM4105 2818c-16-14-52-37-80-53-67-38-75-50-75-109 0-72 9-82 57-68 82 25 100 44 118 125 9 41 15 87 13 102l-3 28-30-25ZM3560 2794c0-17 6-36 13-41 31-26 221-34 297-13 39 11 41 13 38 47l-3 36-173 1-172 1v-31ZM3320 2790c0-31 33-127 47-137 34-26 43-16 43 47 0 57-2 61-32 80-36 22-58 26-58 10ZM3443 2725c-9-25 4-107 18-116 8-5 24-9 37-9 17 0 22 6 22 28 0 15 3 37 6 49 11 42-67 87-83 48ZM3557 2650c-3-30-1-59 3-63 16-17 88-27 207-27 67 0 128 3 137 6 12 5 16 21 16 73v66h-358l-5-55ZM3296 2613c11-45 24-51 24-10 0 26-4 37-15 37-12 0-14-7-9-27ZM3362 2548c3-55 5-63 23-63 17 0 20 8 23 48 3 50-9 77-35 77-11 0-13-14-11-62ZM4010 2560c-59-19-66-30-69-109-1-32 0-33 31-27 17 3 38 12 46 19 17 13 62 104 62 125 0 15-1 14-70-8ZM2260 2547c-51-15-97-20-210-21-80 0-160 2-177 6-18 4-33 4-33-1s37-36 83-69c45-33 174-137 287-231 159-133 225-181 295-216 88-45 197-76 212-62 17 18-79 232-159 354-62 95-183 235-217 252-9 4-44-1-81-12Zm125-227c0-38-39-35-43 3-3 25 0 28 20 25 17-2 23-9 23-28ZM3447 2563c-4-3-7-28-7-54 0-50 21-77 48-61 18 12 27 89 12 107-13 16-42 20-53 8ZM3542 2495c-18-83-14-85 183-92 167-6 175-2 183 75l5 52h-135c-75 0-156 3-181 6l-45 6-10-47ZM2824 2383c8-81 13-89 37-67 25 23 24 74-2 108-34 43-43 33-35-41ZM3347 2373c-11-109-9-179 4-166s36 116 41 183c3 39 0 45-18 48-19 3-22-3-27-65ZM2746 2415c-22-23-30-59-17-84 14-24 47-44 61-36 19 12 10 35-16 45-18 7-24 15-20 26 3 9 6 18 6 20s7 4 16 4 14 7 12 17c-4 23-23 27-42 8ZM3420 2338c-15-88-55-249-75-301-8-20-15-56-15-80 1-41 1-41 14-17 8 14 34 88 59 165 90 281 94 305 53 305-22 0-25-6-36-72ZM3937 2378c-14-12-77-167-77-192 0-6 11 3 25 19 33 40 105 158 105 173 0 16-32 15-53 0Z" style="fill-rule:nonzero" transform="matrix(.1 0 0 -.1 0 653)"/>
    <path d="M2070 2283c19-23 110-112 202-198 199-186 402-402 506-537 67-88 92-112 92-91 0 36-101 403-118 430-5 7-44 22-87 33-150 38-280 115-450 264-130 115-197 160-145 99Z" style="fill-rule:nonzero" transform="matrix(.1 0 0 -.1 0 653)"/>
    <path d="M2622.84 16852.2c-7.93 0-289.68-206.6-509.69-420.3-168.19-163.3-315.78-314.3-323.15-339.9-6.4-20.7-43.68-259.6-59.76-512.8-16.59-261.3-11.76-536.9-3.64-536.9 6 0 496.09-348 504.09-348 17 0-140.22 403.2-146.05 487.5-3.5 50.6 14.37 165.4 40.39 140.4 35.55-34.3 218.97-732.2 242.97-732.2 2.67 0 369.16-347.2 866.01-619 433.83-237.3 1006.73-403.8 1006.73-403.8s.66 139.6 18.03 250c24.26 154.4 66.81 295.4 59.23 301.8-67 54-524.99 401.6-539.99 379.6-17-24-137.01-148.6-143.01-148.6-2.4 0-105.87-166.2-364.79-142-93.19 2.3-144.85 96.1-120.63 167 3.95 60.2 59.98 81.5 122.56 78.8 88.98-10.8 174.93-155 260.79-113.3 57.27 27.8 133 142.7 140.07 154.5l29 45s-395 320-411 338c-32 36-228-255-237-245-13 12 157.73 228 200.69 329.2 85.79 147 102.22 409.6 95.31 410.6-10.16 1.5-111.88-20-187.94-46-101.72-34.7-261.66-111.8-261.66-126.8 0-6 23.6-33 39.6-48 7.34-7.3 60.42-86.2 64.04-157 5.26-103-44.53-190.5-111.04-185-74.72 6.2-93 69-103 93-15.68 34.3-42.52 154.6-11.26 252.1 22.55 70.5 125.78 155.8 171.26 174.9 38.84 27.8 270.34 65 439.69 140 8.2 3.7 58.31 244 73.31 267 13 20 43 3 66-37 6.83-11.9 306.56-303.9 394.6-602 66.77-226-71.01-479.1-73.6-480-5-1-31.41-45.1-35.41-62.1-6-30 521.52-358.8 522.57-373.7 2-28.7 186.2 278.4 453.81 472 252.34 182.5 589.03 251.3 589.03 255.8 0 6.1-673.8 259.1-1163.39 605.7-794.81 562.5-1579.77 1336.5-1593.77 1336.5ZM2692 16593c22-19 23-39 4-59-21-20-39-17-64 11-21 24-21 26-5 45 21 24 40 25 65 3Zm-356-127c8-8 14-19 14-24 0-25-66-24-82 1-20 32 39 52 68 23Zm542-287c23-23 32-41 32-64s-9-41-32-64c-39-38-74-40-128-6-37 23-40 29-40 68 1 64 34 96 101 97 26 0 43-8 67-31Zm-472-121c-3-35-8-89-12-121-5-52-4-60 17-78 13-11 29-17 37-14 7 3 20 5 28 5 16 0 19 36 4 45-13 8-13 45-1 45 5 0 15-16 22-35 10-27 19-35 39-35 25 0 67-20 43-20-7 0-13-7-13-15s-6-15-12-15c-7 0-29-5-49-10-60-17-63-79-5-110 21-11 26-21 26-51 0-34 4-39 40-55 22-10 40-24 40-31 0-26-46-12-89 27-24 22-50 40-57 40-8 0-14 5-14 10 0 6-9 10-20 10s-20-3-20-8c0-7-37-25-77-37-20-6-23-14-25-63l-2-57-3 50c-7 111-28 121-103 55-24-22-48-40-53-40-4 0-17-9-29-20-24-22-48-26-48-9 0 6 21 32 48 59 52 53 72 76 72 85 0 3 9 14 20 25 23 23 26 50 8 68s-28 15-28-8c0-11-7-20-15-20s-15-4-15-8c0-11-89-42-122-42-15 0-30 5-34 12-13 21 28 38 92 38 55 0 64 3 78 25 9 13 16 36 16 50s6 25 13 25c38 0 85 77 57 95-5 3-10 16-10 28s-9 33-20 47c-27 34-25 40 10 40 28 0 30-3 30-35 0-19 4-35 9-35 6 0 11-17 13-37 2-24 9-39 18-41 20-3 40 68 40 144 0 58 13 83 43 84 17 0 18-6 13-62Zm-179-160c-3-8-6-5-6 6-1 11 2 17 5 13 3-3 4-12 1-19Zm-217-48c0-13-7-20-20-20s-20 7-20 20 7 20 20 20 20-7 20-20Zm1214-62c11-30-9-58-42-58-27 0-46 63-25 84 17 16 58 1 67-26Zm-544-33c7-8 24-15 39-15 14 0 33-5 41-10 26-17-9-30-65-24-94 11-133 39-74 55 38 11 46 10 59-6Zm-294-341c-6-21-39-64-50-64-3 0-6 28-6 63 0 49 4 68 20 85 11 12 20 30 20 41s3 28 8 38c8 21 16-130 8-163Zm2480-424c10 0 14-12 14-40v-40h-40c-40 0-40 0-40 39s12 53 38 45c8-2 20-4 28-4Zm-378-52c13-13 16-77 4-93-16-22-54-37-65-26-6 6-18 11-26 11-9 0-22 12-28 27-16 33-17 53-3 53 6 0 10 6 10 14s6 17 13 19c24 10 83 7 95-5Zm-558-785c27-23 25-41-5-55-22-10-28-8-45 10-24 26-25 31-2 48 23 18 28 17 52-3Z" style="fill-rule:nonzero" transform="matrix(.03592 0 0 -.03592 .989 655.25)"/>
    <path d="M120 119c.213-.917 7.581-21 7.581-21s11.28 13.247 12.683 18.914c1.256 5.073-3.408 14.915-4.264 15.086-1.15.122-16.213-12.083-16-13Z"/>
</svg>
