
<svg viewBox="0 0 86 7" xmlns="http://www.w3.org/2000/svg" xml:space="preserve" style="fill-rule:evenodd;clip-rule:evenodd;stroke-linejoin:round;stroke-miterlimit:2">
    <path d="m1058 662 .67 2.073h2.18l-1.76 1.281.67 2.073-1.76-1.281-1.76 1.281.67-2.073-1.76-1.281h2.18L1058 662Z" style="fill:#c6c6bb" transform="translate(-1231.003 -772.333) scale(1.16667)"/>
    <path d="m1058 662 .67 2.073h2.18l-1.76 1.281.67 2.073-1.76-1.281-1.76 1.281.67-2.073-1.76-1.281h2.18L1058 662Z" style="fill:#c6c6bb" transform="translate(-1221.12 -772.333) scale(1.16667)"/>
    <path d="m1058 662 .67 2.073h2.18l-1.76 1.281.67 2.073-1.76-1.281-1.76 1.281.67-2.073-1.76-1.281h2.18L1058 662Z" style="fill:#c6c6bb" transform="translate(-1211.237 -772.333) scale(1.16667)"/>
    <path d="m1058 662 .67 2.073h2.18l-1.76 1.281.67 2.073-1.76-1.281-1.76 1.281.67-2.073-1.76-1.281h2.18L1058 662Z" style="fill:#c6c6bb" transform="translate(-1201.353 -772.333) scale(1.16667)"/>
    <path d="m1058 662 .67 2.073h2.18l-1.76 1.281.67 2.073-1.76-1.281-1.76 1.281.67-2.073-1.76-1.281h2.18L1058 662Z" style="fill:#c6c6bb" transform="translate(-1191.47 -772.333) scale(1.16667)"/>
    <path d="m1058 662 .67 2.073h2.18l-1.76 1.281.67 2.073-1.76-1.281-1.76 1.281.67-2.073-1.76-1.281h2.18L1058 662Z" style="fill:#c6c6bb" transform="translate(-1181.586 -772.333) scale(1.16667)"/>
    <path d="m1058 662 .67 2.073h2.18l-1.76 1.281.67 2.073-1.76-1.281-1.76 1.281.67-2.073-1.76-1.281h2.18L1058 662Z" style="fill:#c6c6bb" transform="translate(-1171.703 -772.333) scale(1.16667)"/>
    <path d="m1058 662 .67 2.073h2.18l-1.76 1.281.67 2.073-1.76-1.281-1.76 1.281.67-2.073-1.76-1.281h2.18L1058 662Z" style="fill:#c6c6bb" transform="translate(-1161.82 -772.333) scale(1.16667)"/>
    <path d="m1058 662 .67 2.073h2.18l-1.76 1.281.67 2.073-1.76-1.281-1.76 1.281.67-2.073-1.76-1.281h2.18L1058 662Z" style="fill:#c6c6bb" transform="translate(-1151.936 -772.333) scale(1.16667)"/>
</svg>
